<svg width="35" height="28" viewBox="0 0 35 28" fill="none" xmlns="http://www.w3.org/2000/svg">
<path d="M34.1927 8.19864V25.3444C34.1929 26.0481 33.9137 26.7231 33.4164 27.2211C32.9192 27.719 32.2446 27.9992 31.5408 28H2.65183C1.94811 27.9992 1.2735 27.719 0.77625 27.2211C0.279001 26.7231 -0.00020176 26.0481 1.09391e-07 25.3444V2.65563C-0.00020176 1.95191 0.279001 1.2769 0.77625 0.778936C1.2735 0.280975 1.94811 0.000805605 2.65183 0H15.6602C16.0497 0.000179721 16.4326 0.100145 16.7725 0.290359C17.1124 0.480573 17.3978 0.754691 17.6016 1.08657C17.6441 1.15368 17.6822 1.22348 17.7156 1.29552L19.1365 4.25129C19.3221 4.63907 19.6135 4.96647 19.9772 5.1957C20.3409 5.42493 20.762 5.54665 21.1919 5.54681H31.5408C32.244 5.54742 32.9181 5.827 33.4153 6.32418C33.9125 6.82137 34.1921 7.49552 34.1927 8.19864Z" fill="#E6E9EB"/>
</svg>
