<svg width="660" height="487" viewBox="0 0 660 487" fill="none" xmlns="http://www.w3.org/2000/svg">
<rect x="0.25" y="0.25" width="659.5" height="486.5" rx="3.75" fill="#EDF0F2" stroke="#E6E9EB" stroke-width="0.5"/>
<path d="M36.2354 37.0801C36.6273 36.4421 37.0944 35.9613 37.6367 35.6377C38.179 35.3141 38.6781 35.1523 39.1338 35.1523C39.7718 35.1523 40.346 35.4281 40.8564 35.9795C41.3669 36.5309 41.6221 37.3672 41.6221 38.4883C41.6221 39.3724 41.4512 40.1631 41.1094 40.8604C40.7721 41.5531 40.321 42.1022 39.7559 42.5078C39.1908 42.9089 38.4912 43.1094 37.6572 43.1094C37.4202 43.1094 37.0557 43.0843 36.5635 43.0342C36.4906 43.0251 36.3812 43.0137 36.2354 43V45.9668H34.9639V35.3643H36.2354V37.0801ZM36.2354 38.5908V41.8652C36.6956 41.9837 37.1195 42.043 37.5068 42.043C38.277 42.043 38.9242 41.7422 39.4482 41.1406C39.9769 40.5345 40.2412 39.7074 40.2412 38.6592C40.2412 37.8981 40.0977 37.3262 39.8105 36.9434C39.5234 36.5605 39.1976 36.3691 38.833 36.3691C38.4365 36.3691 37.999 36.5697 37.5205 36.9707C37.0465 37.3717 36.6182 37.9118 36.2354 38.5908ZM44.1172 43V35.3643H45.3887V37.0322C45.7852 36.4033 46.2386 35.9339 46.749 35.624C47.264 35.3096 47.8359 35.1523 48.4648 35.1523C48.9251 35.1523 49.3854 35.223 49.8457 35.3643V38.1191H48.6221V36.376C48.4079 36.3395 48.2393 36.3213 48.1162 36.3213C47.6423 36.3213 47.1774 36.5081 46.7217 36.8818C46.266 37.2555 45.8216 37.8161 45.3887 38.5635V43H44.1172ZM55.0205 43.2119C53.9268 43.2119 53.0518 42.8314 52.3955 42.0703C51.7393 41.3047 51.4111 40.3408 51.4111 39.1787C51.4111 38.0166 51.7393 37.055 52.3955 36.2939C53.0518 35.5329 53.9268 35.1523 55.0205 35.1523C56.1097 35.1523 56.9824 35.5329 57.6387 36.2939C58.2949 37.055 58.623 38.0166 58.623 39.1787C58.623 40.3408 58.2949 41.3047 57.6387 42.0703C56.9824 42.8314 56.1097 43.2119 55.0205 43.2119ZM55.0205 42.1523C55.6995 42.1523 56.2396 41.888 56.6406 41.3594C57.0417 40.8307 57.2422 40.1038 57.2422 39.1787C57.2422 38.2581 57.0417 37.5335 56.6406 37.0049C56.2396 36.4762 55.6995 36.2119 55.0205 36.2119C54.3369 36.2119 53.7946 36.4762 53.3936 37.0049C52.9925 37.5335 52.792 38.2581 52.792 39.1787C52.792 40.1038 52.9925 40.8307 53.3936 41.3594C53.7946 41.888 54.3369 42.1523 55.0205 42.1523ZM66.71 42.7812C65.8577 43.0684 65.0465 43.2119 64.2764 43.2119C63.5107 43.2119 62.8294 43.0365 62.2324 42.6855C61.64 42.3301 61.1774 41.8516 60.8447 41.25C60.512 40.6439 60.3457 39.9557 60.3457 39.1855C60.3457 38.028 60.7217 37.0664 61.4736 36.3008C62.2301 35.5352 63.1416 35.1523 64.208 35.1523C64.9964 35.1523 65.8304 35.3005 66.71 35.5967V36.8203C65.8213 36.4147 65.026 36.2119 64.3242 36.2119C63.8594 36.2119 63.4219 36.3281 63.0117 36.5605C62.6016 36.7884 62.2848 37.1462 62.0615 37.6338C61.8382 38.1214 61.7266 38.6227 61.7266 39.1377C61.7266 39.8258 61.9408 40.4821 62.3691 41.1064C62.8021 41.7308 63.4788 42.043 64.3994 42.043C64.6774 42.043 64.9508 42.0247 65.2197 41.9883C65.4886 41.9473 65.9854 41.8037 66.71 41.5576V42.7812ZM75.043 42.4941C74.0267 42.9772 73.0651 43.2188 72.1582 43.2188C71.4701 43.2188 70.8548 43.0479 70.3125 42.7061C69.7702 42.3643 69.335 41.8766 69.0068 41.2432C68.6833 40.6051 68.5215 39.9238 68.5215 39.1992C68.5215 38.502 68.6764 37.832 68.9863 37.1895C69.2962 36.5469 69.7292 36.0479 70.2852 35.6924C70.8411 35.3324 71.4609 35.1523 72.1445 35.1523C73.0514 35.1523 73.7783 35.4759 74.3252 36.123C74.8766 36.7702 75.1523 37.7682 75.1523 39.1172V39.3906H69.8887C69.8887 39.9193 69.998 40.4023 70.2168 40.8398C70.4401 41.2773 70.7318 41.6055 71.0918 41.8242C71.4518 42.043 71.862 42.1523 72.3223 42.1523C73.1426 42.1523 74.0495 41.8789 75.043 41.332V42.4941ZM69.9639 38.4404H73.7715V38.2559C73.7715 37.6315 73.6188 37.1348 73.3135 36.7656C73.0081 36.3965 72.6003 36.2119 72.0898 36.2119C71.5749 36.2119 71.1283 36.401 70.75 36.7793C70.3763 37.153 70.1143 37.7067 69.9639 38.4404ZM77.1895 42.5967V41.25C77.6999 41.5827 78.2399 41.8174 78.8096 41.9541C79.3792 42.0863 79.8623 42.1523 80.2588 42.1523C80.9014 42.1523 81.3639 42.0498 81.6465 41.8447C81.929 41.6351 82.0703 41.3753 82.0703 41.0654C82.0703 40.8604 82.0042 40.6849 81.8721 40.5391C81.7399 40.3932 81.4118 40.2132 80.8877 39.999L80.4502 39.8213L79.5684 39.4727C78.6204 39.1035 78.0234 38.7617 77.7773 38.4473C77.5267 38.1374 77.4014 37.7591 77.4014 37.3125C77.4014 36.6836 77.6429 36.1663 78.126 35.7607C78.6136 35.3551 79.402 35.1523 80.4912 35.1523C81.307 35.1523 82.0794 35.2708 82.8086 35.5078V36.6631C81.9701 36.3623 81.1816 36.2119 80.4434 36.2119C79.9056 36.2119 79.484 36.3076 79.1787 36.499C78.8779 36.6859 78.7275 36.9206 78.7275 37.2031C78.7275 37.4766 78.8597 37.6953 79.124 37.8594C79.3838 38.0234 79.8076 38.2126 80.3955 38.4268L81.2568 38.7412C82.0452 39.0283 82.599 39.3405 82.918 39.6777C83.237 40.015 83.3965 40.4365 83.3965 40.9424C83.3965 41.6032 83.1413 42.1478 82.6309 42.5762C82.125 43 81.3138 43.2119 80.1973 43.2119C79.222 43.2119 78.2194 43.0068 77.1895 42.5967ZM85.5977 42.5967V41.25C86.1081 41.5827 86.6481 41.8174 87.2178 41.9541C87.7874 42.0863 88.2705 42.1523 88.667 42.1523C89.3096 42.1523 89.7721 42.0498 90.0547 41.8447C90.3372 41.6351 90.4785 41.3753 90.4785 41.0654C90.4785 40.8604 90.4124 40.6849 90.2803 40.5391C90.1481 40.3932 89.82 40.2132 89.2959 39.999L88.8584 39.8213L87.9766 39.4727C87.0286 39.1035 86.4316 38.7617 86.1855 38.4473C85.9349 38.1374 85.8096 37.7591 85.8096 37.3125C85.8096 36.6836 86.0511 36.1663 86.5342 35.7607C87.0218 35.3551 87.8102 35.1523 88.8994 35.1523C89.7152 35.1523 90.4876 35.2708 91.2168 35.5078V36.6631C90.3783 36.3623 89.5898 36.2119 88.8516 36.2119C88.3138 36.2119 87.8923 36.3076 87.5869 36.499C87.2861 36.6859 87.1357 36.9206 87.1357 37.2031C87.1357 37.4766 87.2679 37.6953 87.5322 37.8594C87.792 38.0234 88.2158 38.2126 88.8037 38.4268L89.665 38.7412C90.4535 39.0283 91.0072 39.3405 91.3262 39.6777C91.6452 40.015 91.8047 40.4365 91.8047 40.9424C91.8047 41.6032 91.5495 42.1478 91.0391 42.5762C90.5332 43 89.722 43.2119 88.6055 43.2119C87.6302 43.2119 86.6276 43.0068 85.5977 42.5967ZM97.0547 43.3213C95.8516 43.3213 94.931 42.8154 94.293 41.8037C93.6595 40.7874 93.3428 39.418 93.3428 37.6953C93.3428 35.9772 93.6595 34.6123 94.293 33.6006C94.931 32.5843 95.8516 32.0762 97.0547 32.0762C98.2624 32.0762 99.1829 32.5843 99.8164 33.6006C100.45 34.6123 100.767 35.9772 100.767 37.6953C100.767 39.418 100.45 40.7874 99.8164 41.8037C99.1829 42.8154 98.2624 43.3213 97.0547 43.3213ZM97.0547 42.2549C97.7201 42.2549 98.2738 41.8789 98.7158 41.127C99.1624 40.3704 99.3857 39.2266 99.3857 37.6953C99.3857 36.1641 99.1624 35.0225 98.7158 34.2705C98.2738 33.514 97.7201 33.1357 97.0547 33.1357C96.3893 33.1357 95.8333 33.514 95.3867 34.2705C94.9447 35.0225 94.7236 36.1641 94.7236 37.6953C94.7236 39.2266 94.9447 40.3704 95.3867 41.127C95.8333 41.8789 96.3893 42.2549 97.0547 42.2549ZM103.501 37.0801C103.893 36.4421 104.36 35.9613 104.902 35.6377C105.445 35.3141 105.944 35.1523 106.399 35.1523C107.037 35.1523 107.612 35.4281 108.122 35.9795C108.632 36.5309 108.888 37.3672 108.888 38.4883C108.888 39.3724 108.717 40.1631 108.375 40.8604C108.038 41.5531 107.587 42.1022 107.021 42.5078C106.456 42.9089 105.757 43.1094 104.923 43.1094C104.686 43.1094 104.321 43.0843 103.829 43.0342C103.756 43.0251 103.647 43.0137 103.501 43H102.229V31.9668H103.501V37.0801ZM103.501 38.5908V41.8652C103.961 41.9837 104.385 42.043 104.772 42.043C105.543 42.043 106.19 41.7422 106.714 41.1406C107.243 40.5345 107.507 39.7074 107.507 38.6592C107.507 37.8981 107.363 37.3262 107.076 36.9434C106.789 36.5605 106.463 36.3691 106.099 36.3691C105.702 36.3691 105.265 36.5697 104.786 36.9707C104.312 37.3717 103.884 37.9118 103.501 38.5908ZM110.85 45.9941V44.8047C111.561 45.0143 112.16 45.1191 112.647 45.1191C113.071 45.1191 113.431 45.0439 113.728 44.8936C114.024 44.7477 114.254 44.4993 114.418 44.1484C114.587 43.7975 114.671 43.1868 114.671 42.3164V36.4238H111.431V35.3643H115.942V42.0771C115.942 43.3714 115.79 44.2692 115.484 44.7705C115.179 45.2764 114.81 45.6387 114.377 45.8574C113.944 46.0762 113.352 46.1855 112.6 46.1855C112.057 46.1855 111.474 46.1217 110.85 45.9941ZM114.459 32.6094C114.459 32.3223 114.555 32.1081 114.746 31.9668C114.942 31.8255 115.129 31.7549 115.307 31.7549C115.484 31.7549 115.669 31.8255 115.86 31.9668C116.056 32.1081 116.154 32.3223 116.154 32.6094C116.154 32.8919 116.056 33.1038 115.86 33.2451C115.669 33.3864 115.484 33.457 115.307 33.457C115.129 33.457 114.942 33.3864 114.746 33.2451C114.555 33.1038 114.459 32.8919 114.459 32.6094ZM125.492 42.4941C124.476 42.9772 123.514 43.2188 122.607 43.2188C121.919 43.2188 121.304 43.0479 120.762 42.7061C120.219 42.3643 119.784 41.8766 119.456 41.2432C119.132 40.6051 118.971 39.9238 118.971 39.1992C118.971 38.502 119.126 37.832 119.436 37.1895C119.745 36.5469 120.178 36.0479 120.734 35.6924C121.29 35.3324 121.91 35.1523 122.594 35.1523C123.501 35.1523 124.228 35.4759 124.774 36.123C125.326 36.7702 125.602 37.7682 125.602 39.1172V39.3906H120.338C120.338 39.9193 120.447 40.4023 120.666 40.8398C120.889 41.2773 121.181 41.6055 121.541 41.8242C121.901 42.043 122.311 42.1523 122.771 42.1523C123.592 42.1523 124.499 41.8789 125.492 41.332V42.4941ZM120.413 38.4404H124.221V38.2559C124.221 37.6315 124.068 37.1348 123.763 36.7656C123.457 36.3965 123.049 36.2119 122.539 36.2119C122.024 36.2119 121.577 36.401 121.199 36.7793C120.826 37.153 120.563 37.7067 120.413 38.4404ZM133.976 42.7812C133.123 43.0684 132.312 43.2119 131.542 43.2119C130.776 43.2119 130.095 43.0365 129.498 42.6855C128.906 42.3301 128.443 41.8516 128.11 41.25C127.778 40.6439 127.611 39.9557 127.611 39.1855C127.611 38.028 127.987 37.0664 128.739 36.3008C129.496 35.5352 130.407 35.1523 131.474 35.1523C132.262 35.1523 133.096 35.3005 133.976 35.5967V36.8203C133.087 36.4147 132.292 36.2119 131.59 36.2119C131.125 36.2119 130.688 36.3281 130.277 36.5605C129.867 36.7884 129.55 37.1462 129.327 37.6338C129.104 38.1214 128.992 38.6227 128.992 39.1377C128.992 39.8258 129.206 40.4821 129.635 41.1064C130.068 41.7308 130.744 42.043 131.665 42.043C131.943 42.043 132.216 42.0247 132.485 41.9883C132.754 41.9473 133.251 41.8037 133.976 41.5576V42.7812ZM142.343 42.6924C141.746 42.943 141.313 43.0911 141.044 43.1367C140.775 43.1868 140.515 43.2119 140.265 43.2119C139.731 43.2119 139.244 43.1094 138.802 42.9043C138.36 42.6992 138.025 42.3962 137.797 41.9951C137.574 41.5941 137.462 40.9743 137.462 40.1357V37.0596H135.555V36H137.462V32.9238H138.733V36H142.131V37.0596H138.733V40.1152C138.733 40.7305 138.806 41.1657 138.952 41.4209C139.098 41.6715 139.292 41.8561 139.533 41.9746C139.779 42.0931 140.069 42.1523 140.401 42.1523C141.017 42.1523 141.664 41.9587 142.343 41.5713V42.6924Z" fill="#3D72B6"/>
<path d="M150.635 45.543C149.372 45.4655 148.308 45.1077 147.442 44.4697C146.576 43.8363 145.884 42.9795 145.364 41.8994C144.849 40.8193 144.592 39.737 144.592 38.6523C144.592 37.5677 144.849 36.4854 145.364 35.4053C145.884 34.3252 146.576 33.4684 147.442 32.835C148.308 32.1969 149.372 31.8369 150.635 31.7549V32.8213C149.682 32.9079 148.862 33.2292 148.174 33.7852C147.49 34.3366 146.952 35.0407 146.561 35.8975C146.169 36.7542 145.973 37.6725 145.973 38.6523C145.973 39.6322 146.169 40.5505 146.561 41.4072C146.952 42.264 147.49 42.9681 148.174 43.5195C148.862 44.071 149.682 44.3923 150.635 44.4834V45.543ZM197.953 43.3213C197.648 43.3213 197.386 43.2119 197.167 42.9932C196.948 42.7744 196.839 42.5124 196.839 42.207C196.839 41.8971 196.948 41.6351 197.167 41.4209C197.39 41.2021 197.652 41.0928 197.953 41.0928C198.254 41.0928 198.514 41.2021 198.732 41.4209C198.956 41.6351 199.067 41.8971 199.067 42.207C199.067 42.5124 198.958 42.7744 198.739 42.9932C198.521 43.2119 198.258 43.3213 197.953 43.3213ZM197.953 37.3809C197.648 37.3809 197.386 37.2715 197.167 37.0527C196.948 36.834 196.839 36.5719 196.839 36.2666C196.839 35.9567 196.948 35.6947 197.167 35.4805C197.39 35.2617 197.652 35.1523 197.953 35.1523C198.254 35.1523 198.514 35.2617 198.732 35.4805C198.956 35.6947 199.067 35.9567 199.067 36.2666C199.067 36.5719 198.958 36.834 198.739 37.0527C198.521 37.2715 198.258 37.3809 197.953 37.3809ZM205.903 38.6523C206.327 38.8757 206.637 39.0944 206.833 39.3086C207.034 39.5228 207.182 39.7438 207.277 39.9717C207.378 40.195 207.428 40.4525 207.428 40.7441C207.428 41.0039 207.382 41.3434 207.291 41.7627L207.12 42.542C207.029 42.9658 206.983 43.2803 206.983 43.4854C206.983 43.7633 207.09 43.998 207.305 44.1895C207.523 44.3854 207.97 44.4834 208.645 44.4834H209.704V45.543H208.631C207.382 45.543 206.578 45.3424 206.218 44.9414C205.858 44.5404 205.678 44.0869 205.678 43.5811C205.678 43.3122 205.712 43.0228 205.78 42.7129L205.903 42.166L206.02 41.5713L206.102 41.209C206.133 41.0404 206.149 40.8763 206.149 40.7168C206.149 40.293 206.006 39.9307 205.719 39.6299C205.436 39.3291 204.935 39.1787 204.215 39.1787H203.606V38.1191H204.215C204.926 38.1191 205.425 37.971 205.712 37.6748C206.004 37.3786 206.149 37.0094 206.149 36.5674C206.149 36.4033 206.133 36.2438 206.102 36.0889L206.02 35.7334L205.903 35.1387L205.78 34.5918C205.712 34.2773 205.678 33.9857 205.678 33.7168C205.678 33.2155 205.858 32.7643 206.218 32.3633C206.578 31.9577 207.382 31.7549 208.631 31.7549H209.704V32.8213H208.645C207.975 32.8213 207.53 32.9193 207.312 33.1152C207.093 33.3066 206.983 33.5436 206.983 33.8262C206.983 34.0267 207.029 34.3389 207.12 34.7627L207.291 35.542C207.382 35.9613 207.428 36.3008 207.428 36.5605C207.428 36.8522 207.378 37.112 207.277 37.3398C207.182 37.5632 207.034 37.7819 206.833 37.9961C206.637 38.2103 206.327 38.429 205.903 38.6523ZM155.912 71.3213C155.607 71.3213 155.345 71.2119 155.126 70.9932C154.907 70.7744 154.798 70.5124 154.798 70.207C154.798 69.8971 154.907 69.6351 155.126 69.4209C155.349 69.2021 155.611 69.0928 155.912 69.0928C156.213 69.0928 156.473 69.2021 156.691 69.4209C156.915 69.6351 157.026 69.8971 157.026 70.207C157.026 70.5124 156.917 70.7744 156.698 70.9932C156.479 71.2119 156.217 71.3213 155.912 71.3213ZM155.912 65.3809C155.607 65.3809 155.345 65.2715 155.126 65.0527C154.907 64.834 154.798 64.5719 154.798 64.2666C154.798 63.9567 154.907 63.6947 155.126 63.4805C155.349 63.2617 155.611 63.1523 155.912 63.1523C156.213 63.1523 156.473 63.2617 156.691 63.4805C156.915 63.6947 157.026 63.9567 157.026 64.2666C157.026 64.5719 156.917 64.834 156.698 65.0527C156.479 65.2715 156.217 65.3809 155.912 65.3809ZM180.679 66.6523C181.103 66.8757 181.412 67.0944 181.608 67.3086C181.809 67.5228 181.957 67.7438 182.053 67.9717C182.153 68.195 182.203 68.4525 182.203 68.7441C182.203 69.0039 182.158 69.3434 182.066 69.7627L181.896 70.542C181.804 70.9658 181.759 71.2803 181.759 71.4854C181.759 71.7633 181.866 71.998 182.08 72.1895C182.299 72.3854 182.745 72.4834 183.42 72.4834H184.479V73.543H183.406C182.158 73.543 181.353 73.3424 180.993 72.9414C180.633 72.5404 180.453 72.0869 180.453 71.5811C180.453 71.3122 180.487 71.0228 180.556 70.7129L180.679 70.166L180.795 69.5713L180.877 69.209C180.909 69.0404 180.925 68.8763 180.925 68.7168C180.925 68.293 180.781 67.9307 180.494 67.6299C180.212 67.3291 179.71 67.1787 178.99 67.1787H178.382V66.1191H178.99C179.701 66.1191 180.2 65.971 180.487 65.6748C180.779 65.3786 180.925 65.0094 180.925 64.5674C180.925 64.4033 180.909 64.2438 180.877 64.0889L180.795 63.7334L180.679 63.1387L180.556 62.5918C180.487 62.2773 180.453 61.9857 180.453 61.7168C180.453 61.2155 180.633 60.7643 180.993 60.3633C181.353 59.9577 182.158 59.7549 183.406 59.7549H184.479V60.8213H183.42C182.75 60.8213 182.306 60.9193 182.087 61.1152C181.868 61.3066 181.759 61.5436 181.759 61.8262C181.759 62.0267 181.804 62.3389 181.896 62.7627L182.066 63.542C182.158 63.9613 182.203 64.3008 182.203 64.5605C182.203 64.8522 182.153 65.112 182.053 65.3398C181.957 65.5632 181.809 65.7819 181.608 65.9961C181.412 66.2103 181.103 66.429 180.679 66.6523ZM248.402 71.3213C248.097 71.3213 247.835 71.2119 247.616 70.9932C247.397 70.7744 247.288 70.5124 247.288 70.207C247.288 69.8971 247.397 69.6351 247.616 69.4209C247.84 69.2021 248.102 69.0928 248.402 69.0928C248.703 69.0928 248.963 69.2021 249.182 69.4209C249.405 69.6351 249.517 69.8971 249.517 70.207C249.517 70.5124 249.407 70.7744 249.188 70.9932C248.97 71.2119 248.708 71.3213 248.402 71.3213ZM248.402 65.3809C248.097 65.3809 247.835 65.2715 247.616 65.0527C247.397 64.834 247.288 64.5719 247.288 64.2666C247.288 63.9567 247.397 63.6947 247.616 63.4805C247.84 63.2617 248.102 63.1523 248.402 63.1523C248.703 63.1523 248.963 63.2617 249.182 63.4805C249.405 63.6947 249.517 63.9567 249.517 64.2666C249.517 64.5719 249.407 64.834 249.188 65.0527C248.97 65.2715 248.708 65.3809 248.402 65.3809ZM307.725 66.6523C307.301 66.429 306.989 66.2103 306.788 65.9961C306.592 65.7819 306.446 65.5632 306.351 65.3398C306.255 65.112 306.207 64.8522 306.207 64.5605C306.207 64.3008 306.25 63.9613 306.337 63.542L306.508 62.7627C306.599 62.3389 306.645 62.0244 306.645 61.8193C306.645 61.5413 306.535 61.3066 306.316 61.1152C306.102 60.9193 305.658 60.8213 304.983 60.8213H303.924V59.7549H304.997C306.246 59.7549 307.05 59.9577 307.41 60.3633C307.775 60.7643 307.957 61.2155 307.957 61.7168C307.957 61.9902 307.921 62.2819 307.848 62.5918L307.725 63.1387L307.608 63.7334L307.526 64.0889C307.494 64.262 307.479 64.4284 307.479 64.5879C307.479 65.0072 307.62 65.3672 307.902 65.668C308.189 65.9688 308.693 66.1191 309.413 66.1191H310.021V67.1787H309.413C308.702 67.1787 308.201 67.3291 307.909 67.6299C307.622 67.9261 307.479 68.2952 307.479 68.7373C307.479 68.8968 307.494 69.054 307.526 69.209L307.608 69.5713L307.725 70.166L307.848 70.7129C307.921 71.0273 307.957 71.319 307.957 71.5879C307.957 72.0938 307.775 72.5449 307.41 72.9414C307.05 73.3424 306.246 73.543 304.997 73.543H303.924V72.4834H304.983C305.658 72.4834 306.102 72.3854 306.316 72.1895C306.535 71.998 306.645 71.7611 306.645 71.4785C306.645 71.278 306.599 70.9658 306.508 70.542L306.337 69.7627C306.25 69.3434 306.207 69.0039 306.207 68.7441C306.207 68.4525 306.255 68.195 306.351 67.9717C306.446 67.7438 306.592 67.5228 306.788 67.3086C306.989 67.0944 307.301 66.8757 307.725 66.6523ZM322.777 73.9668V73.1191C323.105 73.0326 323.354 72.9072 323.522 72.7432C323.696 72.5837 323.832 72.3786 323.933 72.1279C324.037 71.8818 324.09 71.5833 324.09 71.2324C323.666 71.2324 323.354 71.1139 323.153 70.877C322.953 70.6354 322.853 70.3779 322.853 70.1045C322.853 69.79 322.964 69.5257 323.188 69.3115C323.411 69.0928 323.671 68.9834 323.967 68.9834C324.35 68.9834 324.68 69.1497 324.958 69.4824C325.236 69.8105 325.375 70.2617 325.375 70.8359C325.375 71.3372 325.266 71.8089 325.047 72.251C324.828 72.6976 324.53 73.0781 324.151 73.3926C323.778 73.707 323.32 73.8984 322.777 73.9668ZM223.178 99.3213C222.872 99.3213 222.61 99.2119 222.392 98.9932C222.173 98.7744 222.063 98.5124 222.063 98.207C222.063 97.8971 222.173 97.6351 222.392 97.4209C222.615 97.2021 222.877 97.0928 223.178 97.0928C223.479 97.0928 223.738 97.2021 223.957 97.4209C224.18 97.6351 224.292 97.8971 224.292 98.207C224.292 98.5124 224.183 98.7744 223.964 98.9932C223.745 99.2119 223.483 99.3213 223.178 99.3213ZM223.178 93.3809C222.872 93.3809 222.61 93.2715 222.392 93.0527C222.173 92.834 222.063 92.5719 222.063 92.2666C222.063 91.9567 222.173 91.6947 222.392 91.4805C222.615 91.2617 222.877 91.1523 223.178 91.1523C223.479 91.1523 223.738 91.2617 223.957 91.4805C224.18 91.6947 224.292 91.9567 224.292 92.2666C224.292 92.5719 224.183 92.834 223.964 93.0527C223.745 93.2715 223.483 93.3809 223.178 93.3809ZM273.169 94.6523C273.593 94.8757 273.903 95.0944 274.099 95.3086C274.299 95.5228 274.447 95.7438 274.543 95.9717C274.643 96.195 274.693 96.4525 274.693 96.7441C274.693 97.0039 274.648 97.3434 274.557 97.7627L274.386 98.542C274.295 98.9658 274.249 99.2803 274.249 99.4854C274.249 99.7633 274.356 99.998 274.57 100.189C274.789 100.385 275.236 100.483 275.91 100.483H276.97V101.543H275.896C274.648 101.543 273.843 101.342 273.483 100.941C273.123 100.54 272.943 100.087 272.943 99.5811C272.943 99.3122 272.978 99.0228 273.046 98.7129L273.169 98.166L273.285 97.5713L273.367 97.209C273.399 97.0404 273.415 96.8763 273.415 96.7168C273.415 96.293 273.271 95.9307 272.984 95.6299C272.702 95.3291 272.201 95.1787 271.48 95.1787H270.872V94.1191H271.48C272.191 94.1191 272.69 93.971 272.978 93.6748C273.269 93.3786 273.415 93.0094 273.415 92.5674C273.415 92.4033 273.399 92.2438 273.367 92.0889L273.285 91.7334L273.169 91.1387L273.046 90.5918C272.978 90.2773 272.943 89.9857 272.943 89.7168C272.943 89.2155 273.123 88.7643 273.483 88.3633C273.843 87.9577 274.648 87.7549 275.896 87.7549H276.97V88.8213H275.91C275.24 88.8213 274.796 88.9193 274.577 89.1152C274.358 89.3066 274.249 89.5436 274.249 89.8262C274.249 90.0267 274.295 90.3389 274.386 90.7627L274.557 91.542C274.648 91.9613 274.693 92.3008 274.693 92.5605C274.693 92.8522 274.643 93.112 274.543 93.3398C274.447 93.5632 274.299 93.7819 274.099 93.9961C273.903 94.2103 273.593 94.429 273.169 94.6523ZM248.402 127.321C248.097 127.321 247.835 127.212 247.616 126.993C247.397 126.774 247.288 126.512 247.288 126.207C247.288 125.897 247.397 125.635 247.616 125.421C247.84 125.202 248.102 125.093 248.402 125.093C248.703 125.093 248.963 125.202 249.182 125.421C249.405 125.635 249.517 125.897 249.517 126.207C249.517 126.512 249.407 126.774 249.188 126.993C248.97 127.212 248.708 127.321 248.402 127.321ZM248.402 121.381C248.097 121.381 247.835 121.271 247.616 121.053C247.397 120.834 247.288 120.572 247.288 120.267C247.288 119.957 247.397 119.695 247.616 119.48C247.84 119.262 248.102 119.152 248.402 119.152C248.703 119.152 248.963 119.262 249.182 119.48C249.405 119.695 249.517 119.957 249.517 120.267C249.517 120.572 249.407 120.834 249.188 121.053C248.97 121.271 248.708 121.381 248.402 121.381ZM264.761 122.652C265.185 122.876 265.494 123.094 265.69 123.309C265.891 123.523 266.039 123.744 266.135 123.972C266.235 124.195 266.285 124.452 266.285 124.744C266.285 125.004 266.24 125.343 266.148 125.763L265.978 126.542C265.886 126.966 265.841 127.28 265.841 127.485C265.841 127.763 265.948 127.998 266.162 128.189C266.381 128.385 266.827 128.483 267.502 128.483H268.562V129.543H267.488C266.24 129.543 265.435 129.342 265.075 128.941C264.715 128.54 264.535 128.087 264.535 127.581C264.535 127.312 264.569 127.023 264.638 126.713L264.761 126.166L264.877 125.571L264.959 125.209C264.991 125.04 265.007 124.876 265.007 124.717C265.007 124.293 264.863 123.931 264.576 123.63C264.294 123.329 263.792 123.179 263.072 123.179H262.464V122.119H263.072C263.783 122.119 264.282 121.971 264.569 121.675C264.861 121.379 265.007 121.009 265.007 120.567C265.007 120.403 264.991 120.244 264.959 120.089L264.877 119.733L264.761 119.139L264.638 118.592C264.569 118.277 264.535 117.986 264.535 117.717C264.535 117.215 264.715 116.764 265.075 116.363C265.435 115.958 266.24 115.755 267.488 115.755H268.562V116.821H267.502C266.832 116.821 266.388 116.919 266.169 117.115C265.95 117.307 265.841 117.544 265.841 117.826C265.841 118.027 265.886 118.339 265.978 118.763L266.148 119.542C266.24 119.961 266.285 120.301 266.285 120.561C266.285 120.852 266.235 121.112 266.135 121.34C266.039 121.563 265.891 121.782 265.69 121.996C265.494 122.21 265.185 122.429 264.761 122.652ZM298.852 127.321C298.546 127.321 298.284 127.212 298.065 126.993C297.847 126.774 297.737 126.512 297.737 126.207C297.737 125.897 297.847 125.635 298.065 125.421C298.289 125.202 298.551 125.093 298.852 125.093C299.152 125.093 299.412 125.202 299.631 125.421C299.854 125.635 299.966 125.897 299.966 126.207C299.966 126.512 299.856 126.774 299.638 126.993C299.419 127.212 299.157 127.321 298.852 127.321ZM298.852 121.381C298.546 121.381 298.284 121.271 298.065 121.053C297.847 120.834 297.737 120.572 297.737 120.267C297.737 119.957 297.847 119.695 298.065 119.48C298.289 119.262 298.551 119.152 298.852 119.152C299.152 119.152 299.412 119.262 299.631 119.48C299.854 119.695 299.966 119.957 299.966 120.267C299.966 120.572 299.856 120.834 299.638 121.053C299.419 121.271 299.157 121.381 298.852 121.381ZM358.174 122.652C357.75 122.429 357.438 122.21 357.237 121.996C357.041 121.782 356.896 121.563 356.8 121.34C356.704 121.112 356.656 120.852 356.656 120.561C356.656 120.301 356.7 119.961 356.786 119.542L356.957 118.763C357.048 118.339 357.094 118.024 357.094 117.819C357.094 117.541 356.984 117.307 356.766 117.115C356.551 116.919 356.107 116.821 355.433 116.821H354.373V115.755H355.446C356.695 115.755 357.499 115.958 357.859 116.363C358.224 116.764 358.406 117.215 358.406 117.717C358.406 117.99 358.37 118.282 358.297 118.592L358.174 119.139L358.058 119.733L357.976 120.089C357.944 120.262 357.928 120.428 357.928 120.588C357.928 121.007 358.069 121.367 358.352 121.668C358.639 121.969 359.142 122.119 359.862 122.119H360.471V123.179H359.862C359.151 123.179 358.65 123.329 358.358 123.63C358.071 123.926 357.928 124.295 357.928 124.737C357.928 124.897 357.944 125.054 357.976 125.209L358.058 125.571L358.174 126.166L358.297 126.713C358.37 127.027 358.406 127.319 358.406 127.588C358.406 128.094 358.224 128.545 357.859 128.941C357.499 129.342 356.695 129.543 355.446 129.543H354.373V128.483H355.433C356.107 128.483 356.551 128.385 356.766 128.189C356.984 127.998 357.094 127.761 357.094 127.479C357.094 127.278 357.048 126.966 356.957 126.542L356.786 125.763C356.7 125.343 356.656 125.004 356.656 124.744C356.656 124.452 356.704 124.195 356.8 123.972C356.896 123.744 357.041 123.523 357.237 123.309C357.438 123.094 357.75 122.876 358.174 122.652ZM364.818 129.967V129.119C365.146 129.033 365.395 128.907 365.563 128.743C365.737 128.584 365.873 128.379 365.974 128.128C366.078 127.882 366.131 127.583 366.131 127.232C365.707 127.232 365.395 127.114 365.194 126.877C364.994 126.635 364.894 126.378 364.894 126.104C364.894 125.79 365.005 125.526 365.229 125.312C365.452 125.093 365.712 124.983 366.008 124.983C366.391 124.983 366.721 125.15 366.999 125.482C367.277 125.811 367.416 126.262 367.416 126.836C367.416 127.337 367.307 127.809 367.088 128.251C366.869 128.698 366.571 129.078 366.192 129.393C365.819 129.707 365.361 129.898 364.818 129.967ZM256.811 155.321C256.505 155.321 256.243 155.212 256.024 154.993C255.806 154.774 255.696 154.512 255.696 154.207C255.696 153.897 255.806 153.635 256.024 153.421C256.248 153.202 256.51 153.093 256.811 153.093C257.111 153.093 257.371 153.202 257.59 153.421C257.813 153.635 257.925 153.897 257.925 154.207C257.925 154.512 257.815 154.774 257.597 154.993C257.378 155.212 257.116 155.321 256.811 155.321ZM256.811 149.381C256.505 149.381 256.243 149.271 256.024 149.053C255.806 148.834 255.696 148.572 255.696 148.267C255.696 147.957 255.806 147.695 256.024 147.48C256.248 147.262 256.51 147.152 256.811 147.152C257.111 147.152 257.371 147.262 257.59 147.48C257.813 147.695 257.925 147.957 257.925 148.267C257.925 148.572 257.815 148.834 257.597 149.053C257.378 149.271 257.116 149.381 256.811 149.381ZM273.169 150.652C273.593 150.876 273.903 151.094 274.099 151.309C274.299 151.523 274.447 151.744 274.543 151.972C274.643 152.195 274.693 152.452 274.693 152.744C274.693 153.004 274.648 153.343 274.557 153.763L274.386 154.542C274.295 154.966 274.249 155.28 274.249 155.485C274.249 155.763 274.356 155.998 274.57 156.189C274.789 156.385 275.236 156.483 275.91 156.483H276.97V157.543H275.896C274.648 157.543 273.843 157.342 273.483 156.941C273.123 156.54 272.943 156.087 272.943 155.581C272.943 155.312 272.978 155.023 273.046 154.713L273.169 154.166L273.285 153.571L273.367 153.209C273.399 153.04 273.415 152.876 273.415 152.717C273.415 152.293 273.271 151.931 272.984 151.63C272.702 151.329 272.201 151.179 271.48 151.179H270.872V150.119H271.48C272.191 150.119 272.69 149.971 272.978 149.675C273.269 149.379 273.415 149.009 273.415 148.567C273.415 148.403 273.399 148.244 273.367 148.089L273.285 147.733L273.169 147.139L273.046 146.592C272.978 146.277 272.943 145.986 272.943 145.717C272.943 145.215 273.123 144.764 273.483 144.363C273.843 143.958 274.648 143.755 275.896 143.755H276.97V144.821H275.91C275.24 144.821 274.796 144.919 274.577 145.115C274.358 145.307 274.249 145.544 274.249 145.826C274.249 146.027 274.295 146.339 274.386 146.763L274.557 147.542C274.648 147.961 274.693 148.301 274.693 148.561C274.693 148.852 274.643 149.112 274.543 149.34C274.447 149.563 274.299 149.782 274.099 149.996C273.903 150.21 273.593 150.429 273.169 150.652ZM357.709 155.321C357.404 155.321 357.142 155.212 356.923 154.993C356.704 154.774 356.595 154.512 356.595 154.207C356.595 153.897 356.704 153.635 356.923 153.421C357.146 153.202 357.408 153.093 357.709 153.093C358.01 153.093 358.27 153.202 358.488 153.421C358.712 153.635 358.823 153.897 358.823 154.207C358.823 154.512 358.714 154.774 358.495 154.993C358.276 155.212 358.014 155.321 357.709 155.321ZM357.709 149.381C357.404 149.381 357.142 149.271 356.923 149.053C356.704 148.834 356.595 148.572 356.595 148.267C356.595 147.957 356.704 147.695 356.923 147.48C357.146 147.262 357.408 147.152 357.709 147.152C358.01 147.152 358.27 147.262 358.488 147.48C358.712 147.695 358.823 147.957 358.823 148.267C358.823 148.572 358.714 148.834 358.495 149.053C358.276 149.271 358.014 149.381 357.709 149.381ZM425.439 150.652C425.016 150.429 424.703 150.21 424.503 149.996C424.307 149.782 424.161 149.563 424.065 149.34C423.97 149.112 423.922 148.852 423.922 148.561C423.922 148.301 423.965 147.961 424.052 147.542L424.223 146.763C424.314 146.339 424.359 146.024 424.359 145.819C424.359 145.541 424.25 145.307 424.031 145.115C423.817 144.919 423.373 144.821 422.698 144.821H421.639V143.755H422.712C423.961 143.755 424.765 143.958 425.125 144.363C425.49 144.764 425.672 145.215 425.672 145.717C425.672 145.99 425.635 146.282 425.562 146.592L425.439 147.139L425.323 147.733L425.241 148.089C425.209 148.262 425.193 148.428 425.193 148.588C425.193 149.007 425.335 149.367 425.617 149.668C425.904 149.969 426.408 150.119 427.128 150.119H427.736V151.179H427.128C426.417 151.179 425.916 151.329 425.624 151.63C425.337 151.926 425.193 152.295 425.193 152.737C425.193 152.897 425.209 153.054 425.241 153.209L425.323 153.571L425.439 154.166L425.562 154.713C425.635 155.027 425.672 155.319 425.672 155.588C425.672 156.094 425.49 156.545 425.125 156.941C424.765 157.342 423.961 157.543 422.712 157.543H421.639V156.483H422.698C423.373 156.483 423.817 156.385 424.031 156.189C424.25 155.998 424.359 155.761 424.359 155.479C424.359 155.278 424.314 154.966 424.223 154.542L424.052 153.763C423.965 153.343 423.922 153.004 423.922 152.744C423.922 152.452 423.97 152.195 424.065 151.972C424.161 151.744 424.307 151.523 424.503 151.309C424.703 151.094 425.016 150.876 425.439 150.652Z" fill="#737A80"/>
<path d="M157.874 41.2842C157.487 41.9222 157.02 42.403 156.473 42.7266C155.93 43.0501 155.431 43.2119 154.976 43.2119C154.338 43.2119 153.763 42.9362 153.253 42.3848C152.747 41.8333 152.494 40.9971 152.494 39.876C152.494 38.9919 152.663 38.2035 153 37.5107C153.337 36.8135 153.788 36.2643 154.354 35.8633C154.919 35.4577 155.618 35.2549 156.452 35.2549C156.694 35.2549 157.058 35.2799 157.546 35.3301C157.619 35.3392 157.728 35.3506 157.874 35.3643H159.152V45.9668H157.874V41.2842ZM157.874 39.7734V36.499C157.423 36.3805 157.004 36.3213 156.616 36.3213C155.832 36.3213 155.178 36.6243 154.654 37.2305C154.135 37.8366 153.875 38.6615 153.875 39.7051C153.875 40.4616 154.016 41.0335 154.299 41.4209C154.586 41.8037 154.912 41.9951 155.276 41.9951C155.673 41.9951 156.11 41.7946 156.589 41.3936C157.067 40.9925 157.496 40.4525 157.874 39.7734ZM167.465 35.3643V43H166.193V41.3252C165.783 41.9541 165.327 42.4258 164.826 42.7402C164.325 43.0547 163.824 43.2119 163.322 43.2119C162.876 43.2119 162.465 43.0934 162.092 42.8564C161.723 42.6149 161.465 42.3005 161.319 41.9131C161.174 41.5212 161.101 40.7601 161.101 39.6299V35.3643H162.372V39.7871C162.372 40.5208 162.406 41.0062 162.475 41.2432C162.548 41.4756 162.677 41.667 162.864 41.8174C163.056 41.9678 163.261 42.043 163.479 42.043C163.926 42.043 164.405 41.8333 164.915 41.4141C165.43 40.9902 165.856 40.457 166.193 39.8145V35.3643H167.465ZM175.941 42.4941C174.925 42.9772 173.964 43.2188 173.057 43.2188C172.368 43.2188 171.753 43.0479 171.211 42.7061C170.669 42.3643 170.233 41.8766 169.905 41.2432C169.582 40.6051 169.42 39.9238 169.42 39.1992C169.42 38.502 169.575 37.832 169.885 37.1895C170.195 36.5469 170.628 36.0479 171.184 35.6924C171.74 35.3324 172.359 35.1523 173.043 35.1523C173.95 35.1523 174.677 35.4759 175.224 36.123C175.775 36.7702 176.051 37.7682 176.051 39.1172V39.3906H170.787C170.787 39.9193 170.896 40.4023 171.115 40.8398C171.339 41.2773 171.63 41.6055 171.99 41.8242C172.35 42.043 172.76 42.1523 173.221 42.1523C174.041 42.1523 174.948 41.8789 175.941 41.332V42.4941ZM170.862 38.4404H174.67V38.2559C174.67 37.6315 174.517 37.1348 174.212 36.7656C173.907 36.3965 173.499 36.2119 172.988 36.2119C172.473 36.2119 172.027 36.401 171.648 36.7793C171.275 37.153 171.013 37.7067 170.862 38.4404ZM178.648 43V35.3643H179.92V37.0322C180.316 36.4033 180.77 35.9339 181.28 35.624C181.795 35.3096 182.367 35.1523 182.996 35.1523C183.456 35.1523 183.917 35.223 184.377 35.3643V38.1191H183.153V36.376C182.939 36.3395 182.771 36.3213 182.647 36.3213C182.174 36.3213 181.709 36.5081 181.253 36.8818C180.797 37.2555 180.353 37.8161 179.92 38.5635V43H178.648ZM189.217 42.6924L185.689 35.3643H187.091L189.9 41.0928L192.252 35.3643H193.53L190.57 42.46C189.946 43.9593 189.351 44.9551 188.786 45.4473C188.226 45.9395 187.499 46.1855 186.605 46.1855C186.218 46.1855 185.872 46.1514 185.566 46.083V44.9619C185.917 45.0713 186.252 45.126 186.571 45.126C186.981 45.126 187.346 45.0462 187.665 44.8867C187.984 44.7272 188.276 44.4447 188.54 44.0391C188.804 43.6335 188.991 43.2826 189.101 42.9863L189.217 42.6924Z" fill="#973BD5"/>
<path d="M91.8594 70.4941C90.8431 70.9772 89.8815 71.2188 88.9746 71.2188C88.2865 71.2188 87.6712 71.0479 87.1289 70.7061C86.5866 70.3643 86.1514 69.8766 85.8232 69.2432C85.4997 68.6051 85.3379 67.9238 85.3379 67.1992C85.3379 66.502 85.4928 65.832 85.8027 65.1895C86.1126 64.5469 86.5456 64.0479 87.1016 63.6924C87.6576 63.3324 88.2773 63.1523 88.9609 63.1523C89.8678 63.1523 90.5947 63.4759 91.1416 64.123C91.693 64.7702 91.9688 65.7682 91.9688 67.1172V67.3906H86.7051C86.7051 67.9193 86.8145 68.4023 87.0332 68.8398C87.2565 69.2773 87.5482 69.6055 87.9082 69.8242C88.2682 70.043 88.6784 70.1523 89.1387 70.1523C89.959 70.1523 90.8659 69.8789 91.8594 69.332V70.4941ZM86.7803 66.4404H90.5879V66.2559C90.5879 65.6315 90.4352 65.1348 90.1299 64.7656C89.8245 64.3965 89.4167 64.2119 88.9062 64.2119C88.3913 64.2119 87.9447 64.401 87.5664 64.7793C87.1927 65.153 86.9307 65.7067 86.7803 66.4404ZM94.71 71H93.2402L96.2412 67.001L93.4385 63.3643H95.0654L97.0547 65.9277L98.9893 63.3643H100.432L97.7793 66.8779L100.931 71H99.2969L96.9727 67.958L94.71 71ZM104.465 71V64.4238H102.346V63.3643H105.736V69.9404H107.862V71H104.465ZM104.253 60.6094C104.253 60.3223 104.351 60.1081 104.547 59.9668C104.743 59.8255 104.927 59.7549 105.101 59.7549C105.278 59.7549 105.465 59.8255 105.661 59.9668C105.857 60.1081 105.955 60.3223 105.955 60.6094C105.955 60.8919 105.857 61.1038 105.661 61.2451C105.465 61.3864 105.278 61.457 105.101 61.457C104.927 61.457 104.743 61.3864 104.547 61.2451C104.351 61.1038 104.253 60.8919 104.253 60.6094ZM117.118 70.6924C116.521 70.943 116.088 71.0911 115.819 71.1367C115.55 71.1868 115.291 71.2119 115.04 71.2119C114.507 71.2119 114.019 71.1094 113.577 70.9043C113.135 70.6992 112.8 70.3962 112.572 69.9951C112.349 69.5941 112.237 68.9743 112.237 68.1357V65.0596H110.33V64H112.237V60.9238H113.509V64H116.906V65.0596H113.509V68.1152C113.509 68.7305 113.582 69.1657 113.728 69.4209C113.873 69.6715 114.067 69.8561 114.309 69.9746C114.555 70.0931 114.844 70.1523 115.177 70.1523C115.792 70.1523 116.439 69.9587 117.118 69.5713V70.6924ZM121.589 71V61.5596H118.41V60.3906H126.155V61.5596H122.97V71H121.589ZM129.689 71V64.4238H127.57V63.3643H130.961V69.9404H133.087V71H129.689ZM129.478 60.6094C129.478 60.3223 129.576 60.1081 129.771 59.9668C129.967 59.8255 130.152 59.7549 130.325 59.7549C130.503 59.7549 130.69 59.8255 130.886 59.9668C131.082 60.1081 131.18 60.3223 131.18 60.6094C131.18 60.8919 131.082 61.1038 130.886 61.2451C130.69 61.3864 130.503 61.457 130.325 61.457C130.152 61.457 129.967 61.3864 129.771 61.2451C129.576 61.1038 129.478 60.8919 129.478 60.6094ZM135.384 71V63.3643H136.498V65.1143C136.849 64.3714 137.175 63.8587 137.476 63.5762C137.781 63.2936 138.089 63.1523 138.398 63.1523C138.768 63.1523 139.064 63.2982 139.287 63.5898C139.515 63.877 139.629 64.2871 139.629 64.8203V65.2305C139.779 64.7656 139.959 64.3896 140.169 64.1025C140.383 63.8109 140.604 63.5807 140.832 63.4121C141.06 63.2389 141.322 63.1523 141.618 63.1523C141.946 63.1523 142.227 63.2913 142.459 63.5693C142.691 63.8473 142.808 64.401 142.808 65.2305V71H141.693V65.7842C141.693 65.3558 141.68 65.0641 141.652 64.9092C141.625 64.7497 141.57 64.6289 141.488 64.5469C141.406 64.4648 141.317 64.4238 141.222 64.4238C140.985 64.4238 140.729 64.6061 140.456 64.9707C140.187 65.3307 139.911 65.93 139.629 66.7686V71H138.562V65.791C138.562 65.1165 138.496 64.7201 138.364 64.6016C138.232 64.4831 138.114 64.4238 138.009 64.4238C137.776 64.4238 137.526 64.6266 137.257 65.0322C136.993 65.4378 136.74 65.9574 136.498 66.5908V71H135.384ZM150.717 70.4941C149.701 70.9772 148.739 71.2188 147.832 71.2188C147.144 71.2188 146.529 71.0479 145.986 70.7061C145.444 70.3643 145.009 69.8766 144.681 69.2432C144.357 68.6051 144.195 67.9238 144.195 67.1992C144.195 66.502 144.35 65.832 144.66 65.1895C144.97 64.5469 145.403 64.0479 145.959 63.6924C146.515 63.3324 147.135 63.1523 147.818 63.1523C148.725 63.1523 149.452 63.4759 149.999 64.123C150.55 64.7702 150.826 65.7682 150.826 67.1172V67.3906H145.562C145.562 67.9193 145.672 68.4023 145.891 68.8398C146.114 69.2773 146.406 69.6055 146.766 69.8242C147.126 70.043 147.536 70.1523 147.996 70.1523C148.816 70.1523 149.723 69.8789 150.717 69.332V70.4941ZM145.638 66.4404H149.445V66.2559C149.445 65.6315 149.293 65.1348 148.987 64.7656C148.682 64.3965 148.274 64.2119 147.764 64.2119C147.249 64.2119 146.802 64.401 146.424 64.7793C146.05 65.153 145.788 65.7067 145.638 66.4404ZM196.955 71V64.4238H194.836V63.3643H198.227V69.9404H200.353V71H196.955ZM196.743 60.6094C196.743 60.3223 196.841 60.1081 197.037 59.9668C197.233 59.8255 197.418 59.7549 197.591 59.7549C197.769 59.7549 197.955 59.8255 198.151 59.9668C198.347 60.1081 198.445 60.3223 198.445 60.6094C198.445 60.8919 198.347 61.1038 198.151 61.2451C197.955 61.3864 197.769 61.457 197.591 61.457C197.418 61.457 197.233 61.3864 197.037 61.2451C196.841 61.1038 196.743 60.8919 196.743 60.6094ZM203.312 70.5967V69.25C203.823 69.5827 204.363 69.8174 204.933 69.9541C205.502 70.0863 205.985 70.1523 206.382 70.1523C207.024 70.1523 207.487 70.0498 207.77 69.8447C208.052 69.6351 208.193 69.3753 208.193 69.0654C208.193 68.8604 208.127 68.6849 207.995 68.5391C207.863 68.3932 207.535 68.2132 207.011 67.999L206.573 67.8213L205.691 67.4727C204.743 67.1035 204.146 66.7617 203.9 66.4473C203.65 66.1374 203.524 65.7591 203.524 65.3125C203.524 64.6836 203.766 64.1663 204.249 63.7607C204.737 63.3551 205.525 63.1523 206.614 63.1523C207.43 63.1523 208.202 63.2708 208.932 63.5078V64.6631C208.093 64.3623 207.305 64.2119 206.566 64.2119C206.029 64.2119 205.607 64.3076 205.302 64.499C205.001 64.6859 204.851 64.9206 204.851 65.2031C204.851 65.4766 204.983 65.6953 205.247 65.8594C205.507 66.0234 205.931 66.2126 206.519 66.4268L207.38 66.7412C208.168 67.0283 208.722 67.3405 209.041 67.6777C209.36 68.015 209.52 68.4365 209.52 68.9424C209.52 69.6032 209.264 70.1478 208.754 70.5762C208.248 71 207.437 71.2119 206.32 71.2119C205.345 71.2119 204.342 71.0068 203.312 70.5967ZM212.705 71H211.434V60.3906H212.678L216.431 67.4521L216.841 68.5049H216.875L216.841 67.4521V60.3906H218.112V71H216.841L213.19 64.0547L212.678 62.9404L212.705 64.041V71ZM226.322 63.3643V71H225.051V69.3252C224.641 69.9541 224.185 70.4258 223.684 70.7402C223.182 71.0547 222.681 71.2119 222.18 71.2119C221.733 71.2119 221.323 71.0934 220.949 70.8564C220.58 70.6149 220.323 70.3005 220.177 69.9131C220.031 69.5212 219.958 68.7601 219.958 67.6299V63.3643H221.229V67.7871C221.229 68.5208 221.264 69.0062 221.332 69.2432C221.405 69.4756 221.535 69.667 221.722 69.8174C221.913 69.9678 222.118 70.043 222.337 70.043C222.784 70.043 223.262 69.8333 223.772 69.4141C224.287 68.9902 224.714 68.457 225.051 67.8145V63.3643H226.322ZM230.499 71V61.0332H228.216V59.9668H231.771V69.9404H234.156V71H230.499ZM238.907 71V61.0332H236.624V59.9668H240.179V69.9404H242.564V71H238.907ZM87.6484 99V92.4238H85.5293V91.3643H88.9199V97.9404H91.0459V99H87.6484ZM87.4365 88.6094C87.4365 88.3223 87.5345 88.1081 87.7305 87.9668C87.9264 87.8255 88.111 87.7549 88.2842 87.7549C88.4619 87.7549 88.6488 87.8255 88.8447 87.9668C89.0407 88.1081 89.1387 88.3223 89.1387 88.6094C89.1387 88.8919 89.0407 89.1038 88.8447 89.2451C88.6488 89.3864 88.4619 89.457 88.2842 89.457C88.111 89.457 87.9264 89.3864 87.7305 89.2451C87.5345 89.1038 87.4365 88.8919 87.4365 88.6094ZM93.3428 99V91.3643H94.457V93.1143C94.8079 92.3714 95.1338 91.8587 95.4346 91.5762C95.7399 91.2936 96.0475 91.1523 96.3574 91.1523C96.7266 91.1523 97.0228 91.2982 97.2461 91.5898C97.474 91.877 97.5879 92.2871 97.5879 92.8203V93.2305C97.7383 92.7656 97.9183 92.3896 98.1279 92.1025C98.3421 91.8109 98.5632 91.5807 98.791 91.4121C99.0189 91.2389 99.2809 91.1523 99.5771 91.1523C99.9053 91.1523 100.186 91.2913 100.418 91.5693C100.65 91.8473 100.767 92.401 100.767 93.2305V99H99.6523V93.7842C99.6523 93.3558 99.6387 93.0641 99.6113 92.9092C99.584 92.7497 99.5293 92.6289 99.4473 92.5469C99.3652 92.4648 99.2764 92.4238 99.1807 92.4238C98.9437 92.4238 98.6885 92.6061 98.415 92.9707C98.1462 93.3307 97.8704 93.93 97.5879 94.7686V99H96.5215V93.791C96.5215 93.1165 96.4554 92.7201 96.3232 92.6016C96.1911 92.4831 96.0726 92.4238 95.9678 92.4238C95.7354 92.4238 95.4847 92.6266 95.2158 93.0322C94.9515 93.4378 94.6986 93.9574 94.457 94.5908V99H93.3428ZM107.343 97.2842C106.955 97.9222 106.488 98.403 105.941 98.7266C105.399 99.0501 104.9 99.2119 104.444 99.2119C103.806 99.2119 103.232 98.9362 102.722 98.3848C102.216 97.8333 101.963 96.9971 101.963 95.876C101.963 94.9919 102.132 94.2035 102.469 93.5107C102.806 92.8135 103.257 92.2643 103.822 91.8633C104.387 91.4577 105.087 91.2549 105.921 91.2549C106.162 91.2549 106.527 91.2799 107.015 91.3301C107.088 91.3392 107.197 91.3506 107.343 91.3643H108.621V96.7578C108.621 97.6784 108.717 98.4258 108.908 99H107.582C107.482 98.5807 107.402 98.0088 107.343 97.2842ZM107.343 95.7734V92.499C106.892 92.3805 106.472 92.3213 106.085 92.3213C105.301 92.3213 104.647 92.6243 104.123 93.2305C103.604 93.8366 103.344 94.6615 103.344 95.7051C103.344 96.4616 103.485 97.0335 103.768 97.4209C104.055 97.8037 104.381 97.9951 104.745 97.9951C105.142 97.9951 105.579 97.7946 106.058 97.3936C106.536 96.9925 106.965 96.4525 107.343 95.7734ZM115.833 97.2842C115.446 97.9222 114.979 98.403 114.432 98.7266C113.889 99.0501 113.39 99.2119 112.935 99.2119C112.297 99.2119 111.722 98.9362 111.212 98.3848C110.706 97.8333 110.453 96.9971 110.453 95.876C110.453 94.9919 110.622 94.2035 110.959 93.5107C111.296 92.8135 111.747 92.2643 112.312 91.8633C112.878 91.4577 113.577 91.2549 114.411 91.2549C114.653 91.2549 115.017 91.2799 115.505 91.3301C115.578 91.3392 115.687 91.3506 115.833 91.3643H117.111V96.7646C117.111 98.0498 117.093 98.8337 117.057 99.1162C117.025 99.4033 116.97 99.6927 116.893 99.9844C116.71 100.663 116.293 101.199 115.642 101.591C114.994 101.983 114.211 102.179 113.29 102.179C112.365 102.179 111.428 101.942 110.48 101.468V100.183C110.84 100.429 111.283 100.645 111.807 100.832C112.335 101.023 112.846 101.119 113.338 101.119C113.725 101.119 114.092 101.058 114.438 100.935C114.785 100.812 115.065 100.634 115.279 100.401C115.493 100.169 115.639 99.8978 115.717 99.5879C115.794 99.2826 115.833 98.8747 115.833 98.3643V97.2842ZM115.833 95.7734V92.499C115.382 92.3805 114.963 92.3213 114.575 92.3213C113.791 92.3213 113.137 92.6243 112.613 93.2305C112.094 93.8366 111.834 94.6615 111.834 95.7051C111.834 96.4616 111.975 97.0335 112.258 97.4209C112.545 97.8037 112.871 97.9951 113.235 97.9951C113.632 97.9951 114.069 97.7946 114.548 97.3936C115.026 96.9925 115.455 96.4525 115.833 95.7734ZM125.492 98.4941C124.476 98.9772 123.514 99.2188 122.607 99.2188C121.919 99.2188 121.304 99.0479 120.762 98.7061C120.219 98.3643 119.784 97.8766 119.456 97.2432C119.132 96.6051 118.971 95.9238 118.971 95.1992C118.971 94.502 119.126 93.832 119.436 93.1895C119.745 92.5469 120.178 92.0479 120.734 91.6924C121.29 91.3324 121.91 91.1523 122.594 91.1523C123.501 91.1523 124.228 91.4759 124.774 92.123C125.326 92.7702 125.602 93.7682 125.602 95.1172V95.3906H120.338C120.338 95.9193 120.447 96.4023 120.666 96.8398C120.889 97.2773 121.181 97.6055 121.541 97.8242C121.901 98.043 122.311 98.1523 122.771 98.1523C123.592 98.1523 124.499 97.8789 125.492 97.332V98.4941ZM120.413 94.4404H124.221V94.2559C124.221 93.6315 124.068 93.1348 123.763 92.7656C123.457 92.3965 123.049 92.2119 122.539 92.2119C122.024 92.2119 121.577 92.401 121.199 92.7793C120.826 93.153 120.563 93.7067 120.413 94.4404ZM128.042 99V88.3906H133.873V89.457H129.423V93.0596H133.449V94.1191H129.423V99H128.042ZM138.098 99V92.4238H135.979V91.3643H139.369V97.9404H141.495V99H138.098ZM137.886 88.6094C137.886 88.3223 137.984 88.1081 138.18 87.9668C138.376 87.8255 138.56 87.7549 138.733 87.7549C138.911 87.7549 139.098 87.8255 139.294 87.9668C139.49 88.1081 139.588 88.3223 139.588 88.6094C139.588 88.8919 139.49 89.1038 139.294 89.2451C139.098 89.3864 138.911 89.457 138.733 89.457C138.56 89.457 138.376 89.3864 138.18 89.2451C137.984 89.1038 137.886 88.8919 137.886 88.6094ZM146.417 99V89.0332H144.134V87.9668H147.688V97.9404H150.074V99H146.417ZM159.125 98.4941C158.109 98.9772 157.147 99.2188 156.24 99.2188C155.552 99.2188 154.937 99.0479 154.395 98.7061C153.852 98.3643 153.417 97.8766 153.089 97.2432C152.765 96.6051 152.604 95.9238 152.604 95.1992C152.604 94.502 152.758 93.832 153.068 93.1895C153.378 92.5469 153.811 92.0479 154.367 91.6924C154.923 91.3324 155.543 91.1523 156.227 91.1523C157.133 91.1523 157.86 91.4759 158.407 92.123C158.959 92.7702 159.234 93.7682 159.234 95.1172V95.3906H153.971C153.971 95.9193 154.08 96.4023 154.299 96.8398C154.522 97.2773 154.814 97.6055 155.174 97.8242C155.534 98.043 155.944 98.1523 156.404 98.1523C157.225 98.1523 158.132 97.8789 159.125 97.332V98.4941ZM154.046 94.4404H157.854V94.2559C157.854 93.6315 157.701 93.1348 157.396 92.7656C157.09 92.3965 156.682 92.2119 156.172 92.2119C155.657 92.2119 155.21 92.401 154.832 92.7793C154.458 93.153 154.196 93.7067 154.046 94.4404ZM164.32 99.3213C163.117 99.3213 162.197 98.8154 161.559 97.8037C160.925 96.7874 160.608 95.418 160.608 93.6953C160.608 91.9772 160.925 90.6123 161.559 89.6006C162.197 88.5843 163.117 88.0762 164.32 88.0762C165.528 88.0762 166.449 88.5843 167.082 89.6006C167.715 90.6123 168.032 91.9772 168.032 93.6953C168.032 95.418 167.715 96.7874 167.082 97.8037C166.449 98.8154 165.528 99.3213 164.32 99.3213ZM164.32 98.2549C164.986 98.2549 165.539 97.8789 165.981 97.127C166.428 96.3704 166.651 95.2266 166.651 93.6953C166.651 92.1641 166.428 91.0225 165.981 90.2705C165.539 89.514 164.986 89.1357 164.32 89.1357C163.655 89.1357 163.099 89.514 162.652 90.2705C162.21 91.0225 161.989 92.1641 161.989 93.6953C161.989 95.2266 162.21 96.3704 162.652 97.127C163.099 97.8789 163.655 98.2549 164.32 98.2549ZM170.767 93.0801C171.159 92.4421 171.626 91.9613 172.168 91.6377C172.71 91.3141 173.209 91.1523 173.665 91.1523C174.303 91.1523 174.877 91.4281 175.388 91.9795C175.898 92.5309 176.153 93.3672 176.153 94.4883C176.153 95.3724 175.982 96.1631 175.641 96.8604C175.303 97.5531 174.852 98.1022 174.287 98.5078C173.722 98.9089 173.022 99.1094 172.188 99.1094C171.951 99.1094 171.587 99.0843 171.095 99.0342C171.022 99.0251 170.912 99.0137 170.767 99H169.495V87.9668H170.767V93.0801ZM170.767 94.5908V97.8652C171.227 97.9837 171.651 98.043 172.038 98.043C172.808 98.043 173.455 97.7422 173.979 97.1406C174.508 96.5345 174.772 95.7074 174.772 94.6592C174.772 93.8981 174.629 93.3262 174.342 92.9434C174.055 92.5605 173.729 92.3691 173.364 92.3691C172.968 92.3691 172.53 92.5697 172.052 92.9707C171.578 93.3717 171.149 93.9118 170.767 94.5908ZM178.115 101.994V100.805C178.826 101.014 179.425 101.119 179.913 101.119C180.337 101.119 180.697 101.044 180.993 100.894C181.289 100.748 181.52 100.499 181.684 100.148C181.852 99.7975 181.937 99.1868 181.937 98.3164V92.4238H178.696V91.3643H183.208V98.0771C183.208 99.3714 183.055 100.269 182.75 100.771C182.445 101.276 182.076 101.639 181.643 101.857C181.21 102.076 180.617 102.186 179.865 102.186C179.323 102.186 178.74 102.122 178.115 101.994ZM181.725 88.6094C181.725 88.3223 181.82 88.1081 182.012 87.9668C182.208 87.8255 182.395 87.7549 182.572 87.7549C182.75 87.7549 182.935 87.8255 183.126 87.9668C183.322 88.1081 183.42 88.3223 183.42 88.6094C183.42 88.8919 183.322 89.1038 183.126 89.2451C182.935 89.3864 182.75 89.457 182.572 89.457C182.395 89.457 182.208 89.3864 182.012 89.2451C181.82 89.1038 181.725 88.8919 181.725 88.6094ZM192.758 98.4941C191.742 98.9772 190.78 99.2188 189.873 99.2188C189.185 99.2188 188.57 99.0479 188.027 98.7061C187.485 98.3643 187.05 97.8766 186.722 97.2432C186.398 96.6051 186.236 95.9238 186.236 95.1992C186.236 94.502 186.391 93.832 186.701 93.1895C187.011 92.5469 187.444 92.0479 188 91.6924C188.556 91.3324 189.176 91.1523 189.859 91.1523C190.766 91.1523 191.493 91.4759 192.04 92.123C192.591 92.7702 192.867 93.7682 192.867 95.1172V95.3906H187.604C187.604 95.9193 187.713 96.4023 187.932 96.8398C188.155 97.2773 188.447 97.6055 188.807 97.8242C189.167 98.043 189.577 98.1523 190.037 98.1523C190.857 98.1523 191.764 97.8789 192.758 97.332V98.4941ZM187.679 94.4404H191.486V94.2559C191.486 93.6315 191.334 93.1348 191.028 92.7656C190.723 92.3965 190.315 92.2119 189.805 92.2119C189.29 92.2119 188.843 92.401 188.465 92.7793C188.091 93.153 187.829 93.7067 187.679 94.4404ZM201.241 98.7812C200.389 99.0684 199.578 99.2119 198.808 99.2119C198.042 99.2119 197.361 99.0365 196.764 98.6855C196.171 98.3301 195.709 97.8516 195.376 97.25C195.043 96.6439 194.877 95.9557 194.877 95.1855C194.877 94.028 195.253 93.0664 196.005 92.3008C196.761 91.5352 197.673 91.1523 198.739 91.1523C199.528 91.1523 200.362 91.3005 201.241 91.5967V92.8203C200.353 92.4147 199.557 92.2119 198.855 92.2119C198.391 92.2119 197.953 92.3281 197.543 92.5605C197.133 92.7884 196.816 93.1462 196.593 93.6338C196.369 94.1214 196.258 94.6227 196.258 95.1377C196.258 95.8258 196.472 96.4821 196.9 97.1064C197.333 97.7308 198.01 98.043 198.931 98.043C199.209 98.043 199.482 98.0247 199.751 97.9883C200.02 97.9473 200.517 97.8037 201.241 97.5576V98.7812ZM209.608 98.6924C209.011 98.943 208.578 99.0911 208.31 99.1367C208.041 99.1868 207.781 99.2119 207.53 99.2119C206.997 99.2119 206.509 99.1094 206.067 98.9043C205.625 98.6992 205.29 98.3962 205.062 97.9951C204.839 97.5941 204.728 96.9743 204.728 96.1357V93.0596H202.82V92H204.728V88.9238H205.999V92H209.396V93.0596H205.999V96.1152C205.999 96.7305 206.072 97.1657 206.218 97.4209C206.364 97.6715 206.557 97.8561 206.799 97.9746C207.045 98.0931 207.334 98.1523 207.667 98.1523C208.282 98.1523 208.929 97.9587 209.608 97.5713V98.6924ZM180.139 127V120.424H178.02V119.364H181.41V125.94H183.536V127H180.139ZM179.927 116.609C179.927 116.322 180.025 116.108 180.221 115.967C180.417 115.826 180.601 115.755 180.774 115.755C180.952 115.755 181.139 115.826 181.335 115.967C181.531 116.108 181.629 116.322 181.629 116.609C181.629 116.892 181.531 117.104 181.335 117.245C181.139 117.386 180.952 117.457 180.774 117.457C180.601 117.457 180.417 117.386 180.221 117.245C180.025 117.104 179.927 116.892 179.927 116.609ZM186.496 126.597V125.25C187.007 125.583 187.547 125.817 188.116 125.954C188.686 126.086 189.169 126.152 189.565 126.152C190.208 126.152 190.671 126.05 190.953 125.845C191.236 125.635 191.377 125.375 191.377 125.065C191.377 124.86 191.311 124.685 191.179 124.539C191.047 124.393 190.718 124.213 190.194 123.999L189.757 123.821L188.875 123.473C187.927 123.104 187.33 122.762 187.084 122.447C186.833 122.137 186.708 121.759 186.708 121.312C186.708 120.684 186.95 120.166 187.433 119.761C187.92 119.355 188.709 119.152 189.798 119.152C190.614 119.152 191.386 119.271 192.115 119.508V120.663C191.277 120.362 190.488 120.212 189.75 120.212C189.212 120.212 188.791 120.308 188.485 120.499C188.185 120.686 188.034 120.921 188.034 121.203C188.034 121.477 188.166 121.695 188.431 121.859C188.69 122.023 189.114 122.213 189.702 122.427L190.563 122.741C191.352 123.028 191.906 123.34 192.225 123.678C192.544 124.015 192.703 124.437 192.703 124.942C192.703 125.603 192.448 126.148 191.938 126.576C191.432 127 190.62 127.212 189.504 127.212C188.529 127.212 187.526 127.007 186.496 126.597ZM194.829 126.774V125.476C195.923 125.995 196.916 126.255 197.81 126.255C198.183 126.255 198.541 126.184 198.883 126.043C199.225 125.897 199.482 125.69 199.655 125.421C199.833 125.152 199.922 124.86 199.922 124.546C199.922 124.177 199.801 123.833 199.56 123.514C199.318 123.19 198.865 122.835 198.199 122.447L197.502 122.044L196.798 121.641C195.558 120.907 194.938 119.995 194.938 118.906C194.938 118.109 195.214 117.439 195.766 116.896C196.322 116.35 197.188 116.076 198.363 116.076C199.12 116.076 199.851 116.186 200.558 116.404V117.587C199.778 117.286 199.02 117.136 198.281 117.136C197.693 117.136 197.217 117.291 196.853 117.601C196.493 117.91 196.312 118.284 196.312 118.722C196.312 119.155 196.451 119.515 196.729 119.802C197.007 120.089 197.363 120.353 197.796 120.595L198.329 120.916L198.992 121.319L199.553 121.647C200.715 122.358 201.296 123.252 201.296 124.327C201.296 125.147 200.997 125.852 200.4 126.439C199.803 127.027 198.846 127.321 197.529 127.321C197.11 127.321 196.709 127.285 196.326 127.212C195.948 127.144 195.449 126.998 194.829 126.774ZM205.363 127V120.424H203.244V119.364H206.635V125.94H208.761V127H205.363ZM205.151 116.609C205.151 116.322 205.249 116.108 205.445 115.967C205.641 115.826 205.826 115.755 205.999 115.755C206.177 115.755 206.364 115.826 206.56 115.967C206.756 116.108 206.854 116.322 206.854 116.609C206.854 116.892 206.756 117.104 206.56 117.245C206.364 117.386 206.177 117.457 205.999 117.457C205.826 117.457 205.641 117.386 205.445 117.245C205.249 117.104 205.151 116.892 205.151 116.609ZM216.731 125.284C216.344 125.922 215.877 126.403 215.33 126.727C214.788 127.05 214.289 127.212 213.833 127.212C213.195 127.212 212.621 126.936 212.11 126.385C211.604 125.833 211.352 124.997 211.352 123.876C211.352 122.992 211.52 122.203 211.857 121.511C212.195 120.813 212.646 120.264 213.211 119.863C213.776 119.458 214.476 119.255 215.31 119.255C215.551 119.255 215.916 119.28 216.403 119.33C216.476 119.339 216.586 119.351 216.731 119.364H218.01V124.765C218.01 126.05 217.992 126.834 217.955 127.116C217.923 127.403 217.868 127.693 217.791 127.984C217.609 128.663 217.192 129.199 216.54 129.591C215.893 129.983 215.109 130.179 214.188 130.179C213.263 130.179 212.327 129.942 211.379 129.468V128.183C211.739 128.429 212.181 128.645 212.705 128.832C213.234 129.023 213.744 129.119 214.236 129.119C214.624 129.119 214.991 129.058 215.337 128.935C215.683 128.812 215.964 128.634 216.178 128.401C216.392 128.169 216.538 127.898 216.615 127.588C216.693 127.283 216.731 126.875 216.731 126.364V125.284ZM216.731 123.773V120.499C216.28 120.381 215.861 120.321 215.474 120.321C214.69 120.321 214.036 120.624 213.512 121.23C212.992 121.837 212.732 122.661 212.732 123.705C212.732 124.462 212.874 125.034 213.156 125.421C213.443 125.804 213.769 125.995 214.134 125.995C214.53 125.995 214.968 125.795 215.446 125.394C215.925 124.993 216.353 124.452 216.731 123.773ZM220.04 127V119.364H221.312V121.032C221.676 120.444 222.116 119.984 222.631 119.651C223.146 119.319 223.661 119.152 224.176 119.152C224.627 119.152 225.037 119.273 225.406 119.515C225.775 119.752 226.033 120.064 226.179 120.451C226.329 120.839 226.404 121.6 226.404 122.734V127H225.133V122.577C225.133 121.843 225.096 121.36 225.023 121.128C224.955 120.891 224.825 120.697 224.634 120.547C224.447 120.396 224.242 120.321 224.019 120.321C223.572 120.321 223.091 120.533 222.576 120.957C222.066 121.381 221.644 121.912 221.312 122.55V127H220.04ZM234.799 126.494C233.783 126.977 232.821 127.219 231.914 127.219C231.226 127.219 230.611 127.048 230.068 126.706C229.526 126.364 229.091 125.877 228.763 125.243C228.439 124.605 228.277 123.924 228.277 123.199C228.277 122.502 228.432 121.832 228.742 121.189C229.052 120.547 229.485 120.048 230.041 119.692C230.597 119.332 231.217 119.152 231.9 119.152C232.807 119.152 233.534 119.476 234.081 120.123C234.632 120.77 234.908 121.768 234.908 123.117V123.391H229.645C229.645 123.919 229.754 124.402 229.973 124.84C230.196 125.277 230.488 125.605 230.848 125.824C231.208 126.043 231.618 126.152 232.078 126.152C232.898 126.152 233.805 125.879 234.799 125.332V126.494ZM229.72 122.44H233.527V122.256C233.527 121.632 233.375 121.135 233.069 120.766C232.764 120.396 232.356 120.212 231.846 120.212C231.331 120.212 230.884 120.401 230.506 120.779C230.132 121.153 229.87 121.707 229.72 122.44ZM241.956 125.284C241.569 125.922 241.102 126.403 240.555 126.727C240.012 127.05 239.513 127.212 239.058 127.212C238.42 127.212 237.845 126.936 237.335 126.385C236.829 125.833 236.576 124.997 236.576 123.876C236.576 122.992 236.745 122.203 237.082 121.511C237.419 120.813 237.87 120.264 238.436 119.863C239.001 119.458 239.7 119.255 240.534 119.255C240.776 119.255 241.14 119.28 241.628 119.33C241.701 119.339 241.81 119.351 241.956 119.364V115.967H243.234V127H241.956V125.284ZM241.956 123.773V120.499C241.505 120.381 241.086 120.321 240.698 120.321C239.914 120.321 239.26 120.624 238.736 121.23C238.217 121.837 237.957 122.661 237.957 123.705C237.957 124.462 238.098 125.034 238.381 125.421C238.668 125.804 238.994 125.995 239.358 125.995C239.755 125.995 240.192 125.795 240.671 125.394C241.149 124.993 241.578 124.452 241.956 123.773ZM281.037 127V120.424H278.918V119.364H282.309V125.94H284.435V127H281.037ZM280.825 116.609C280.825 116.322 280.923 116.108 281.119 115.967C281.315 115.826 281.5 115.755 281.673 115.755C281.851 115.755 282.037 115.826 282.233 115.967C282.429 116.108 282.527 116.322 282.527 116.609C282.527 116.892 282.429 117.104 282.233 117.245C282.037 117.386 281.851 117.457 281.673 117.457C281.5 117.457 281.315 117.386 281.119 117.245C280.923 117.104 280.825 116.892 280.825 116.609ZM287.395 126.597V125.25C287.905 125.583 288.445 125.817 289.015 125.954C289.584 126.086 290.067 126.152 290.464 126.152C291.106 126.152 291.569 126.05 291.852 125.845C292.134 125.635 292.275 125.375 292.275 125.065C292.275 124.86 292.209 124.685 292.077 124.539C291.945 124.393 291.617 124.213 291.093 123.999L290.655 123.821L289.773 123.473C288.826 123.104 288.229 122.762 287.982 122.447C287.732 122.137 287.606 121.759 287.606 121.312C287.606 120.684 287.848 120.166 288.331 119.761C288.819 119.355 289.607 119.152 290.696 119.152C291.512 119.152 292.285 119.271 293.014 119.508V120.663C292.175 120.362 291.387 120.212 290.648 120.212C290.111 120.212 289.689 120.308 289.384 120.499C289.083 120.686 288.933 120.921 288.933 121.203C288.933 121.477 289.065 121.695 289.329 121.859C289.589 122.023 290.013 122.213 290.601 122.427L291.462 122.741C292.25 123.028 292.804 123.34 293.123 123.678C293.442 124.015 293.602 124.437 293.602 124.942C293.602 125.603 293.346 126.148 292.836 126.576C292.33 127 291.519 127.212 290.402 127.212C289.427 127.212 288.424 127.007 287.395 126.597ZM180.139 155V148.424H178.02V147.364H181.41V153.94H183.536V155H180.139ZM179.927 144.609C179.927 144.322 180.025 144.108 180.221 143.967C180.417 143.826 180.601 143.755 180.774 143.755C180.952 143.755 181.139 143.826 181.335 143.967C181.531 144.108 181.629 144.322 181.629 144.609C181.629 144.892 181.531 145.104 181.335 145.245C181.139 145.386 180.952 145.457 180.774 145.457C180.601 145.457 180.417 145.386 180.221 145.245C180.025 145.104 179.927 144.892 179.927 144.609ZM185.833 155V147.364H186.947V149.114C187.298 148.371 187.624 147.859 187.925 147.576C188.23 147.294 188.538 147.152 188.848 147.152C189.217 147.152 189.513 147.298 189.736 147.59C189.964 147.877 190.078 148.287 190.078 148.82V149.23C190.229 148.766 190.409 148.39 190.618 148.103C190.832 147.811 191.053 147.581 191.281 147.412C191.509 147.239 191.771 147.152 192.067 147.152C192.396 147.152 192.676 147.291 192.908 147.569C193.141 147.847 193.257 148.401 193.257 149.23V155H192.143V149.784C192.143 149.356 192.129 149.064 192.102 148.909C192.074 148.75 192.02 148.629 191.938 148.547C191.855 148.465 191.767 148.424 191.671 148.424C191.434 148.424 191.179 148.606 190.905 148.971C190.636 149.331 190.361 149.93 190.078 150.769V155H189.012V149.791C189.012 149.117 188.946 148.72 188.813 148.602C188.681 148.483 188.563 148.424 188.458 148.424C188.226 148.424 187.975 148.627 187.706 149.032C187.442 149.438 187.189 149.957 186.947 150.591V155H185.833ZM199.833 153.284C199.446 153.922 198.979 154.403 198.432 154.727C197.889 155.05 197.39 155.212 196.935 155.212C196.297 155.212 195.722 154.936 195.212 154.385C194.706 153.833 194.453 152.997 194.453 151.876C194.453 150.992 194.622 150.203 194.959 149.511C195.296 148.813 195.747 148.264 196.312 147.863C196.878 147.458 197.577 147.255 198.411 147.255C198.653 147.255 199.017 147.28 199.505 147.33C199.578 147.339 199.687 147.351 199.833 147.364H201.111V152.758C201.111 153.678 201.207 154.426 201.398 155H200.072C199.972 154.581 199.892 154.009 199.833 153.284ZM199.833 151.773V148.499C199.382 148.381 198.963 148.321 198.575 148.321C197.791 148.321 197.137 148.624 196.613 149.23C196.094 149.837 195.834 150.661 195.834 151.705C195.834 152.462 195.975 153.034 196.258 153.421C196.545 153.804 196.871 153.995 197.235 153.995C197.632 153.995 198.069 153.795 198.548 153.394C199.026 152.993 199.455 152.452 199.833 151.773ZM208.323 153.284C207.936 153.922 207.469 154.403 206.922 154.727C206.38 155.05 205.881 155.212 205.425 155.212C204.787 155.212 204.213 154.936 203.702 154.385C203.196 153.833 202.943 152.997 202.943 151.876C202.943 150.992 203.112 150.203 203.449 149.511C203.786 148.813 204.238 148.264 204.803 147.863C205.368 147.458 206.067 147.255 206.901 147.255C207.143 147.255 207.507 147.28 207.995 147.33C208.068 147.339 208.177 147.351 208.323 147.364H209.602V152.765C209.602 154.05 209.583 154.834 209.547 155.116C209.515 155.403 209.46 155.693 209.383 155.984C209.201 156.663 208.784 157.199 208.132 157.591C207.485 157.983 206.701 158.179 205.78 158.179C204.855 158.179 203.919 157.942 202.971 157.468V156.183C203.331 156.429 203.773 156.645 204.297 156.832C204.826 157.023 205.336 157.119 205.828 157.119C206.215 157.119 206.582 157.058 206.929 156.935C207.275 156.812 207.555 156.634 207.77 156.401C207.984 156.169 208.13 155.898 208.207 155.588C208.285 155.283 208.323 154.875 208.323 154.364V153.284ZM208.323 151.773V148.499C207.872 148.381 207.453 148.321 207.065 148.321C206.282 148.321 205.628 148.624 205.104 149.23C204.584 149.837 204.324 150.661 204.324 151.705C204.324 152.462 204.465 153.034 204.748 153.421C205.035 153.804 205.361 153.995 205.726 153.995C206.122 153.995 206.56 153.795 207.038 153.394C207.517 152.993 207.945 152.452 208.323 151.773ZM217.982 154.494C216.966 154.977 216.005 155.219 215.098 155.219C214.41 155.219 213.794 155.048 213.252 154.706C212.71 154.364 212.274 153.877 211.946 153.243C211.623 152.605 211.461 151.924 211.461 151.199C211.461 150.502 211.616 149.832 211.926 149.189C212.236 148.547 212.669 148.048 213.225 147.692C213.781 147.332 214.4 147.152 215.084 147.152C215.991 147.152 216.718 147.476 217.265 148.123C217.816 148.77 218.092 149.768 218.092 151.117V151.391H212.828C212.828 151.919 212.938 152.402 213.156 152.84C213.38 153.277 213.671 153.605 214.031 153.824C214.391 154.043 214.801 154.152 215.262 154.152C216.082 154.152 216.989 153.879 217.982 153.332V154.494ZM212.903 150.44H216.711V150.256C216.711 149.632 216.558 149.135 216.253 148.766C215.948 148.396 215.54 148.212 215.029 148.212C214.514 148.212 214.068 148.401 213.689 148.779C213.316 149.153 213.054 149.707 212.903 150.44ZM220.054 154.774V153.476C221.147 153.995 222.141 154.255 223.034 154.255C223.408 154.255 223.766 154.184 224.107 154.043C224.449 153.897 224.707 153.69 224.88 153.421C225.058 153.152 225.146 152.86 225.146 152.546C225.146 152.177 225.026 151.833 224.784 151.514C224.543 151.19 224.089 150.835 223.424 150.447L222.727 150.044L222.022 149.641C220.783 148.907 220.163 147.995 220.163 146.906C220.163 146.109 220.439 145.439 220.99 144.896C221.546 144.35 222.412 144.076 223.588 144.076C224.344 144.076 225.076 144.186 225.782 144.404V145.587C225.003 145.286 224.244 145.136 223.506 145.136C222.918 145.136 222.442 145.291 222.077 145.601C221.717 145.91 221.537 146.284 221.537 146.722C221.537 147.155 221.676 147.515 221.954 147.802C222.232 148.089 222.588 148.353 223.021 148.595L223.554 148.916L224.217 149.319L224.777 149.647C225.939 150.358 226.521 151.252 226.521 152.327C226.521 153.147 226.222 153.852 225.625 154.439C225.028 155.027 224.071 155.321 222.754 155.321C222.335 155.321 221.934 155.285 221.551 155.212C221.173 155.144 220.674 154.998 220.054 154.774ZM230.588 155V148.424H228.469V147.364H231.859V153.94H233.985V155H230.588ZM230.376 144.609C230.376 144.322 230.474 144.108 230.67 143.967C230.866 143.826 231.05 143.755 231.224 143.755C231.401 143.755 231.588 143.826 231.784 143.967C231.98 144.108 232.078 144.322 232.078 144.609C232.078 144.892 231.98 145.104 231.784 145.245C231.588 145.386 231.401 145.457 231.224 145.457C231.05 145.457 230.866 145.386 230.67 145.245C230.474 145.104 230.376 144.892 230.376 144.609ZM236.706 155V153.831L241.389 148.424H236.815V147.364H243.07V148.424L238.354 153.831H243.228V155H236.706ZM251.615 154.494C250.599 154.977 249.637 155.219 248.73 155.219C248.042 155.219 247.427 155.048 246.885 154.706C246.342 154.364 245.907 153.877 245.579 153.243C245.256 152.605 245.094 151.924 245.094 151.199C245.094 150.502 245.249 149.832 245.559 149.189C245.868 148.547 246.301 148.048 246.857 147.692C247.413 147.332 248.033 147.152 248.717 147.152C249.624 147.152 250.351 147.476 250.897 148.123C251.449 148.77 251.725 149.768 251.725 151.117V151.391H246.461C246.461 151.919 246.57 152.402 246.789 152.84C247.012 153.277 247.304 153.605 247.664 153.824C248.024 154.043 248.434 154.152 248.895 154.152C249.715 154.152 250.622 153.879 251.615 153.332V154.494ZM246.536 150.44H250.344V150.256C250.344 149.632 250.191 149.135 249.886 148.766C249.58 148.396 249.173 148.212 248.662 148.212C248.147 148.212 247.701 148.401 247.322 148.779C246.949 149.153 246.687 149.707 246.536 150.44ZM289.356 155V145.033H287.073V143.967H290.628V153.94H293.014V155H289.356ZM302.064 154.494C301.048 154.977 300.087 155.219 299.18 155.219C298.492 155.219 297.876 155.048 297.334 154.706C296.792 154.364 296.356 153.877 296.028 153.243C295.705 152.605 295.543 151.924 295.543 151.199C295.543 150.502 295.698 149.832 296.008 149.189C296.318 148.547 296.751 148.048 297.307 147.692C297.863 147.332 298.482 147.152 299.166 147.152C300.073 147.152 300.8 147.476 301.347 148.123C301.898 148.77 302.174 149.768 302.174 151.117V151.391H296.91C296.91 151.919 297.02 152.402 297.238 152.84C297.462 153.277 297.753 153.605 298.113 153.824C298.473 154.043 298.883 154.152 299.344 154.152C300.164 154.152 301.071 153.879 302.064 153.332V154.494ZM296.985 150.44H300.793V150.256C300.793 149.632 300.64 149.135 300.335 148.766C300.03 148.396 299.622 148.212 299.111 148.212C298.596 148.212 298.15 148.401 297.771 148.779C297.398 149.153 297.136 149.707 296.985 150.44ZM304.211 154.597V153.25C304.721 153.583 305.261 153.817 305.831 153.954C306.401 154.086 306.884 154.152 307.28 154.152C307.923 154.152 308.385 154.05 308.668 153.845C308.951 153.635 309.092 153.375 309.092 153.065C309.092 152.86 309.026 152.685 308.894 152.539C308.761 152.393 308.433 152.213 307.909 151.999L307.472 151.821L306.59 151.473C305.642 151.104 305.045 150.762 304.799 150.447C304.548 150.137 304.423 149.759 304.423 149.312C304.423 148.684 304.664 148.166 305.147 147.761C305.635 147.355 306.424 147.152 307.513 147.152C308.328 147.152 309.101 147.271 309.83 147.508V148.663C308.992 148.362 308.203 148.212 307.465 148.212C306.927 148.212 306.506 148.308 306.2 148.499C305.899 148.686 305.749 148.921 305.749 149.203C305.749 149.477 305.881 149.695 306.146 149.859C306.405 150.023 306.829 150.213 307.417 150.427L308.278 150.741C309.067 151.028 309.62 151.34 309.939 151.678C310.258 152.015 310.418 152.437 310.418 152.942C310.418 153.603 310.163 154.148 309.652 154.576C309.146 155 308.335 155.212 307.219 155.212C306.243 155.212 305.241 155.007 304.211 154.597ZM312.619 154.597V153.25C313.13 153.583 313.67 153.817 314.239 153.954C314.809 154.086 315.292 154.152 315.688 154.152C316.331 154.152 316.794 154.05 317.076 153.845C317.359 153.635 317.5 153.375 317.5 153.065C317.5 152.86 317.434 152.685 317.302 152.539C317.17 152.393 316.841 152.213 316.317 151.999L315.88 151.821L314.998 151.473C314.05 151.104 313.453 150.762 313.207 150.447C312.956 150.137 312.831 149.759 312.831 149.312C312.831 148.684 313.073 148.166 313.556 147.761C314.043 147.355 314.832 147.152 315.921 147.152C316.737 147.152 317.509 147.271 318.238 147.508V148.663C317.4 148.362 316.611 148.212 315.873 148.212C315.335 148.212 314.914 148.308 314.608 148.499C314.308 148.686 314.157 148.921 314.157 149.203C314.157 149.477 314.289 149.695 314.554 149.859C314.813 150.023 315.237 150.213 315.825 150.427L316.687 150.741C317.475 151.028 318.029 151.34 318.348 151.678C318.667 152.015 318.826 152.437 318.826 152.942C318.826 153.603 318.571 154.148 318.061 154.576C317.555 155 316.743 155.212 315.627 155.212C314.652 155.212 313.649 155.007 312.619 154.597ZM323.386 155V145.56H320.207V144.391H327.952V145.56H324.767V155H323.386ZM329.347 155V143.967H330.618V149.032C330.983 148.444 331.423 147.984 331.938 147.651C332.452 147.319 332.967 147.152 333.482 147.152C333.915 147.152 334.31 147.264 334.665 147.487C335.025 147.706 335.276 147.973 335.417 148.287C335.531 148.529 335.608 148.786 335.649 149.06C335.69 149.328 335.711 149.887 335.711 150.734V155H334.439V150.577C334.439 149.843 334.403 149.36 334.33 149.128C334.262 148.891 334.132 148.697 333.94 148.547C333.754 148.396 333.549 148.321 333.325 148.321C332.879 148.321 332.398 148.533 331.883 148.957C331.372 149.381 330.951 149.912 330.618 150.55V155H329.347ZM342.772 153.284C342.385 153.922 341.918 154.403 341.371 154.727C340.829 155.05 340.33 155.212 339.874 155.212C339.236 155.212 338.662 154.936 338.151 154.385C337.646 153.833 337.393 152.997 337.393 151.876C337.393 150.992 337.561 150.203 337.898 149.511C338.236 148.813 338.687 148.264 339.252 147.863C339.817 147.458 340.517 147.255 341.351 147.255C341.592 147.255 341.957 147.28 342.444 147.33C342.517 147.339 342.627 147.351 342.772 147.364H344.051V152.758C344.051 153.678 344.146 154.426 344.338 155H343.012C342.911 154.581 342.832 154.009 342.772 153.284ZM342.772 151.773V148.499C342.321 148.381 341.902 148.321 341.515 148.321C340.731 148.321 340.077 148.624 339.553 149.23C339.033 149.837 338.773 150.661 338.773 151.705C338.773 152.462 338.915 153.034 339.197 153.421C339.484 153.804 339.81 153.995 340.175 153.995C340.571 153.995 341.009 153.795 341.487 153.394C341.966 152.993 342.394 152.452 342.772 151.773ZM346.163 155V147.364H347.435V149.032C347.799 148.444 348.239 147.984 348.754 147.651C349.269 147.319 349.784 147.152 350.299 147.152C350.75 147.152 351.16 147.273 351.529 147.515C351.898 147.752 352.156 148.064 352.302 148.451C352.452 148.839 352.527 149.6 352.527 150.734V155H351.256V150.577C351.256 149.843 351.219 149.36 351.146 149.128C351.078 148.891 350.948 148.697 350.757 148.547C350.57 148.396 350.365 148.321 350.142 148.321C349.695 148.321 349.214 148.533 348.699 148.957C348.189 149.381 347.767 149.912 347.435 150.55V155H346.163Z" fill="#973BD4"/>
<path d="M263.858 71V65.0596H262.163V64H263.858V63.6445C263.858 62.6374 263.972 61.8923 264.2 61.4092C264.428 60.9261 264.779 60.5296 265.253 60.2197C265.731 59.9098 266.363 59.7549 267.146 59.7549C267.739 59.7549 268.34 59.8164 268.951 59.9395V61.1494C268.29 60.9307 267.705 60.8213 267.194 60.8213C266.789 60.8213 266.431 60.8965 266.121 61.0469C265.811 61.1973 265.567 61.4434 265.39 61.7852C265.216 62.1224 265.13 62.6966 265.13 63.5078V64H268.158V65.0596H265.13V71H263.858ZM275.507 69.2842C275.119 69.9222 274.652 70.403 274.105 70.7266C273.563 71.0501 273.064 71.2119 272.608 71.2119C271.97 71.2119 271.396 70.9362 270.886 70.3848C270.38 69.8333 270.127 68.9971 270.127 67.876C270.127 66.9919 270.296 66.2035 270.633 65.5107C270.97 64.8135 271.421 64.2643 271.986 63.8633C272.551 63.4577 273.251 63.2549 274.085 63.2549C274.326 63.2549 274.691 63.2799 275.179 63.3301C275.252 63.3392 275.361 63.3506 275.507 63.3643H276.785V68.7578C276.785 69.6784 276.881 70.4258 277.072 71H275.746C275.646 70.5807 275.566 70.0088 275.507 69.2842ZM275.507 67.7734V64.499C275.056 64.3805 274.636 64.3213 274.249 64.3213C273.465 64.3213 272.811 64.6243 272.287 65.2305C271.768 65.8366 271.508 66.6615 271.508 67.7051C271.508 68.4616 271.649 69.0335 271.932 69.4209C272.219 69.8037 272.545 69.9951 272.909 69.9951C273.306 69.9951 273.743 69.7946 274.222 69.3936C274.7 68.9925 275.129 68.4525 275.507 67.7734ZM280.948 71V61.0332H278.665V59.9668H282.22V69.9404H284.605V71H280.948ZM287.395 70.5967V69.25C287.905 69.5827 288.445 69.8174 289.015 69.9541C289.584 70.0863 290.067 70.1523 290.464 70.1523C291.106 70.1523 291.569 70.0498 291.852 69.8447C292.134 69.6351 292.275 69.3753 292.275 69.0654C292.275 68.8604 292.209 68.6849 292.077 68.5391C291.945 68.3932 291.617 68.2132 291.093 67.999L290.655 67.8213L289.773 67.4727C288.826 67.1035 288.229 66.7617 287.982 66.4473C287.732 66.1374 287.606 65.7591 287.606 65.3125C287.606 64.6836 287.848 64.1663 288.331 63.7607C288.819 63.3551 289.607 63.1523 290.696 63.1523C291.512 63.1523 292.285 63.2708 293.014 63.5078V64.6631C292.175 64.3623 291.387 64.2119 290.648 64.2119C290.111 64.2119 289.689 64.3076 289.384 64.499C289.083 64.6859 288.933 64.9206 288.933 65.2031C288.933 65.4766 289.065 65.6953 289.329 65.8594C289.589 66.0234 290.013 66.2126 290.601 66.4268L291.462 66.7412C292.25 67.0283 292.804 67.3405 293.123 67.6777C293.442 68.015 293.602 68.4365 293.602 68.9424C293.602 69.6032 293.346 70.1478 292.836 70.5762C292.33 71 291.519 71.2119 290.402 71.2119C289.427 71.2119 288.424 71.0068 287.395 70.5967ZM302.064 70.4941C301.048 70.9772 300.087 71.2188 299.18 71.2188C298.492 71.2188 297.876 71.0479 297.334 70.7061C296.792 70.3643 296.356 69.8766 296.028 69.2432C295.705 68.6051 295.543 67.9238 295.543 67.1992C295.543 66.502 295.698 65.832 296.008 65.1895C296.318 64.5469 296.751 64.0479 297.307 63.6924C297.863 63.3324 298.482 63.1523 299.166 63.1523C300.073 63.1523 300.8 63.4759 301.347 64.123C301.898 64.7702 302.174 65.7682 302.174 67.1172V67.3906H296.91C296.91 67.9193 297.02 68.4023 297.238 68.8398C297.462 69.2773 297.753 69.6055 298.113 69.8242C298.473 70.043 298.883 70.1523 299.344 70.1523C300.164 70.1523 301.071 69.8789 302.064 69.332V70.4941ZM296.985 66.4404H300.793V66.2559C300.793 65.6315 300.64 65.1348 300.335 64.7656C300.03 64.3965 299.622 64.2119 299.111 64.2119C298.596 64.2119 298.15 64.401 297.771 64.7793C297.398 65.153 297.136 65.7067 296.985 66.4404Z" fill="#DFA532"/>
<path d="M318.915 126.692C318.318 126.943 317.885 127.091 317.616 127.137C317.347 127.187 317.088 127.212 316.837 127.212C316.304 127.212 315.816 127.109 315.374 126.904C314.932 126.699 314.597 126.396 314.369 125.995C314.146 125.594 314.034 124.974 314.034 124.136V121.06H312.127V120H314.034V116.924H315.306V120H318.703V121.06H315.306V124.115C315.306 124.73 315.379 125.166 315.524 125.421C315.67 125.672 315.864 125.856 316.105 125.975C316.352 126.093 316.641 126.152 316.974 126.152C317.589 126.152 318.236 125.959 318.915 125.571V126.692ZM321.588 127V119.364H322.859V121.032C323.256 120.403 323.709 119.934 324.22 119.624C324.735 119.31 325.307 119.152 325.936 119.152C326.396 119.152 326.856 119.223 327.316 119.364V122.119H326.093V120.376C325.879 120.34 325.71 120.321 325.587 120.321C325.113 120.321 324.648 120.508 324.192 120.882C323.737 121.256 323.292 121.816 322.859 122.563V127H321.588ZM335.629 119.364V127H334.357V125.325C333.947 125.954 333.492 126.426 332.99 126.74C332.489 127.055 331.988 127.212 331.486 127.212C331.04 127.212 330.63 127.093 330.256 126.856C329.887 126.615 329.629 126.3 329.483 125.913C329.338 125.521 329.265 124.76 329.265 123.63V119.364H330.536V123.787C330.536 124.521 330.57 125.006 330.639 125.243C330.712 125.476 330.841 125.667 331.028 125.817C331.22 125.968 331.425 126.043 331.644 126.043C332.09 126.043 332.569 125.833 333.079 125.414C333.594 124.99 334.02 124.457 334.357 123.814V119.364H335.629ZM344.105 126.494C343.089 126.977 342.128 127.219 341.221 127.219C340.533 127.219 339.917 127.048 339.375 126.706C338.833 126.364 338.397 125.877 338.069 125.243C337.746 124.605 337.584 123.924 337.584 123.199C337.584 122.502 337.739 121.832 338.049 121.189C338.359 120.547 338.792 120.048 339.348 119.692C339.904 119.332 340.523 119.152 341.207 119.152C342.114 119.152 342.841 119.476 343.388 120.123C343.939 120.77 344.215 121.768 344.215 123.117V123.391H338.951C338.951 123.919 339.061 124.402 339.279 124.84C339.503 125.277 339.794 125.605 340.154 125.824C340.514 126.043 340.924 126.152 341.385 126.152C342.205 126.152 343.112 125.879 344.105 125.332V126.494ZM339.026 122.44H342.834V122.256C342.834 121.632 342.681 121.135 342.376 120.766C342.071 120.396 341.663 120.212 341.152 120.212C340.637 120.212 340.191 120.401 339.812 120.779C339.439 121.153 339.177 121.707 339.026 122.44Z" fill="#DFA532"/>
<path d="M385.135 149.367C384.807 149.855 384.399 150.254 383.911 150.563C383.428 150.869 382.895 151.021 382.312 151.021C381.76 151.021 381.236 150.889 380.739 150.625C380.247 150.356 379.871 149.98 379.611 149.497C379.352 149.014 379.222 148.453 379.222 147.815C379.222 146.813 379.543 145.94 380.186 145.197C380.833 144.45 381.683 144.076 382.735 144.076C383.975 144.076 384.9 144.596 385.511 145.635C386.126 146.669 386.434 147.986 386.434 149.586C386.434 151.354 386.044 152.753 385.265 153.783C384.485 154.809 383.43 155.321 382.1 155.321C381.384 155.321 380.689 155.214 380.015 155V153.722C380.771 154.077 381.484 154.255 382.154 154.255C383.102 154.255 383.836 153.82 384.355 152.949C384.875 152.079 385.135 150.976 385.135 149.641V149.367ZM382.64 145.136C382.298 145.136 381.954 145.238 381.607 145.443C381.261 145.644 380.988 145.954 380.787 146.373C380.591 146.792 380.493 147.253 380.493 147.754C380.493 148.396 380.66 148.925 380.992 149.34C381.329 149.755 381.808 149.962 382.428 149.962C383.07 149.962 383.597 149.723 384.007 149.244C384.422 148.761 384.629 148.178 384.629 147.494C384.629 146.801 384.426 146.236 384.021 145.799C383.619 145.357 383.159 145.136 382.64 145.136ZM391.342 144.076C392.549 144.076 393.47 144.584 394.104 145.601C394.737 146.612 395.054 147.977 395.054 149.695C395.054 151.418 394.737 152.787 394.104 153.804C393.47 154.815 392.549 155.321 391.342 155.321C390.139 155.321 389.218 154.815 388.58 153.804C387.947 152.787 387.63 151.418 387.63 149.695C387.63 147.977 387.947 146.612 388.58 145.601C389.218 144.584 390.139 144.076 391.342 144.076ZM389.271 151.965L392.941 146.216C392.709 145.792 392.456 145.507 392.183 145.361C391.914 145.211 391.633 145.136 391.342 145.136C390.581 145.136 390.002 145.56 389.605 146.407C389.209 147.25 389.011 148.321 389.011 149.62C389.011 149.916 389.02 150.235 389.038 150.577C389.056 150.919 389.134 151.382 389.271 151.965ZM393.399 147.48L389.756 153.264C389.952 153.596 390.177 153.847 390.433 154.016C390.688 154.18 390.973 154.262 391.287 154.262C392.153 154.262 392.768 153.779 393.133 152.812C393.497 151.842 393.68 150.766 393.68 149.586C393.68 148.857 393.586 148.155 393.399 147.48ZM399.75 144.076C400.958 144.076 401.878 144.584 402.512 145.601C403.145 146.612 403.462 147.977 403.462 149.695C403.462 151.418 403.145 152.787 402.512 153.804C401.878 154.815 400.958 155.321 399.75 155.321C398.547 155.321 397.626 154.815 396.988 153.804C396.355 152.787 396.038 151.418 396.038 149.695C396.038 147.977 396.355 146.612 396.988 145.601C397.626 144.584 398.547 144.076 399.75 144.076ZM397.679 151.965L401.35 146.216C401.117 145.792 400.864 145.507 400.591 145.361C400.322 145.211 400.042 145.136 399.75 145.136C398.989 145.136 398.41 145.56 398.014 146.407C397.617 147.25 397.419 148.321 397.419 149.62C397.419 149.916 397.428 150.235 397.446 150.577C397.465 150.919 397.542 151.382 397.679 151.965ZM401.808 147.48L398.164 153.264C398.36 153.596 398.586 153.847 398.841 154.016C399.096 154.18 399.381 154.262 399.695 154.262C400.561 154.262 401.176 153.779 401.541 152.812C401.906 151.842 402.088 150.766 402.088 149.586C402.088 148.857 401.994 148.155 401.808 147.48ZM408.158 144.076C409.366 144.076 410.286 144.584 410.92 145.601C411.553 146.612 411.87 147.977 411.87 149.695C411.87 151.418 411.553 152.787 410.92 153.804C410.286 154.815 409.366 155.321 408.158 155.321C406.955 155.321 406.035 154.815 405.396 153.804C404.763 152.787 404.446 151.418 404.446 149.695C404.446 147.977 404.763 146.612 405.396 145.601C406.035 144.584 406.955 144.076 408.158 144.076ZM406.087 151.965L409.758 146.216C409.525 145.792 409.272 145.507 408.999 145.361C408.73 145.211 408.45 145.136 408.158 145.136C407.397 145.136 406.818 145.56 406.422 146.407C406.025 147.25 405.827 148.321 405.827 149.62C405.827 149.916 405.836 150.235 405.854 150.577C405.873 150.919 405.95 151.382 406.087 151.965ZM410.216 147.48L406.572 153.264C406.768 153.596 406.994 153.847 407.249 154.016C407.504 154.18 407.789 154.262 408.104 154.262C408.969 154.262 409.585 153.779 409.949 152.812C410.314 151.842 410.496 150.766 410.496 149.586C410.496 148.857 410.403 148.155 410.216 147.48Z" fill="#1968FE"/>
</svg>
